SplineFontDB: 3.2
FontName: FixedsysEvolution
FullName: FixedsysEvolution
FamilyName: FixedsysEvolution
Weight: Regular
Copyright: Copyright (c) 2023, ssrlive
UComments: "2023-2-26: Created with FontForge (http://fontforge.org)"
Version: 001.000
ItalicAngle: 0
UnderlinePosition: -100
UnderlineWidth: 50
Ascent: 800
Descent: 200
InvalidEm: 0
LayerCount: 2
Layer: 0 0 "Back" 1
Layer: 1 0 "Fore" 0
XUID: [1021 872 -1323775843 1822]
StyleMap: 0x0000
FSType: 0
OS2Version: 0
OS2_WeightWidthSlopeOnly: 0
OS2_UseTypoMetrics: 1
CreationTime: 1677404500
ModificationTime: 1677430413
PfmFamily: 17
TTFWeight: 400
TTFWidth: 5
LineGap: 90
VLineGap: 0
OS2TypoAscent: 0
OS2TypoAOffset: 1
OS2TypoDescent: 0
OS2TypoDOffset: 1
OS2TypoLinegap: 90
OS2WinAscent: 0
OS2WinAOffset: 1
OS2WinDescent: 0
OS2WinDOffset: 1
HheadAscent: 0
HheadAOffset: 1
HheadDescent: 0
HheadDOffset: 1
OS2Vendor: 'PfEd'
MarkAttachClasses: 1
DEI: 91125
LangName: 1033
Encoding: ISO8859-1
UnicodeInterp: tradchinese
NameList: AGL For New Fonts
DisplaySize: -48
AntiAlias: 1
FitToEm: 0
WinInfo: 0 28 10
BeginPrivate: 0
EndPrivate
TeXData: 1 0 0 346030 173015 115343 539268 1048576 115343 783286 444596 497025 792723 393216 433062 380633 303038 157286 324010 404750 52429 2506097 1059062 262144
BeginChars: 256 94

StartChar: dollar
Encoding: 36 36 0
Width: 500
Flags: HW
LayerCount: 2
Fore
SplineSet
151.282226562 713.461914062 m 2
 155.127929688 787.1796875 l 1
 217.948242188 787.1796875 l 1
 280.76953125 787.1796875 l 1
 284.615234375 713.461914062 l 2
 288.026367188 648.077148438 291.72265625 639.30859375 317.307617188 635.897460938 c 0
 338.500976562 633.071289062 346.154296875 623.717773438 346.154296875 600.640625 c 0
 346.154296875 575.512695312 352.564453125 569.23046875 378.205078125 569.23046875 c 0
 404.9140625 569.23046875 410.256835938 562.8203125 410.256835938 530.76953125 c 0
 410.256835938 493.077148438 408.974609375 492.307617188 346.154296875 492.307617188 c 0
 285.897460938 492.307617188 282.051757812 494.23046875 282.051757812 524.359375 c 0
 282.051757812 554.487304688 278.205078125 556.41015625 217.948242188 556.41015625 c 2
 153.845703125 556.41015625 l 1
 153.845703125 485.897460938 l 2
 153.845703125 419.23046875 155.594726562 415.384765625 185.897460938 415.384765625 c 0
 212.606445312 415.384765625 217.948242188 408.974609375 217.948242188 376.922851562 c 0
 217.948242188 344.872070312 223.291015625 338.461914062 250 338.461914062 c 0
 276.708984375 338.461914062 282.051757812 332.051757812 282.051757812 300 c 0
 282.051757812 267.948242188 287.393554688 261.538085938 314.102539062 261.538085938 c 0
 340.811523438 261.538085938 346.154296875 255.127929688 346.154296875 223.077148438 c 0
 346.154296875 191.025390625 351.49609375 184.615234375 378.205078125 184.615234375 c 0
 408.654296875 184.615234375 410.256835938 180.76953125 410.256835938 107.692382812 c 0
 410.256835938 34.615234375 408.654296875 30.76953125 378.205078125 30.76953125 c 0
 351.49609375 30.76953125 346.154296875 24.359375 346.154296875 -7.6923828125 c 0
 346.154296875 -39.7431640625 340.811523438 -46.154296875 314.102539062 -46.154296875 c 0
 283.654296875 -46.154296875 282.051757812 -50 282.051757812 -123.077148438 c 2
 282.051757812 -200 l 1
 217.948242188 -200 l 1
 153.845703125 -200 l 1
 153.845703125 -123.077148438 l 2
 153.845703125 -50 152.243164062 -46.154296875 121.794921875 -46.154296875 c 0
 95.0859375 -46.154296875 89.7431640625 -39.7431640625 89.7431640625 -7.6923828125 c 0
 89.7431640625 24.359375 84.4013671875 30.76953125 57.6923828125 30.76953125 c 0
 30.982421875 30.76953125 25.640625 37.1796875 25.640625 69.23046875 c 0
 25.640625 106.922851562 26.9228515625 107.692382812 89.7431640625 107.692382812 c 0
 152.564453125 107.692382812 153.845703125 106.922851562 153.845703125 69.23046875 c 0
 153.845703125 31.5380859375 155.127929688 30.76953125 217.948242188 30.76953125 c 2
 282.051757812 30.76953125 l 1
 282.051757812 107.692382812 l 2
 282.051757812 180.76953125 280.448242188 184.615234375 250 184.615234375 c 0
 223.291015625 184.615234375 217.948242188 191.025390625 217.948242188 223.077148438 c 0
 217.948242188 255.127929688 212.606445312 261.538085938 185.897460938 261.538085938 c 0
 159.188476562 261.538085938 153.845703125 267.948242188 153.845703125 300 c 0
 153.845703125 332.051757812 148.50390625 338.461914062 121.794921875 338.461914062 c 0
 94.47265625 338.461914062 89.7431640625 344.23046875 89.7431640625 377.564453125 c 0
 89.7431640625 401.922851562 83.9423828125 415.854492188 74.359375 414.512695312 c 0
 31.2314453125 408.474609375 25.640625 416.666992188 25.640625 485.897460938 c 0
 25.640625 524.359375 31.46875 557.284179688 38.4619140625 558.333007812 c 0
 45.640625 559.41015625 58.3330078125 560.8203125 67.3076171875 561.538085938 c 0
 76.2109375 562.250976562 85.04296875 578.205078125 87.1796875 597.435546875 c 0
 89.8857421875 621.794921875 99.3828125 633.190429688 119.23046875 635.897460938 c 0
 143.756835938 639.2421875 147.9375 649.359375 151.282226562 713.461914062 c 2
EndSplineSet
Validated: 33
EndChar

StartChar: percent
Encoding: 37 37 1
Width: 500
Flags: HW
LayerCount: 2
Fore
SplineSet
64.1025390625 671.794921875 m 2
 64.1025390625 710.256835938 l 1
 159.615234375 710.256835938 l 2
 254.487304688 710.256835938 255.154296875 710.01953125 258.974609375 675 c 0
 261.771484375 649.359375 270.862304688 638.51953125 292.307617188 635.256835938 c 0
 319.446289062 631.126953125 321.48828125 625 317.948242188 558.333007812 c 0
 314.409179688 491.666992188 311.8046875 486.204101562 285.256835938 489.743164062 c 0
 260.666015625 493.022460938 256.41015625 487.8203125 256.41015625 454.487304688 c 0
 256.41015625 421.154296875 261.138671875 415.384765625 288.461914062 415.384765625 c 0
 315.170898438 415.384765625 320.512695312 421.794921875 320.512695312 453.845703125 c 0
 320.512695312 485.897460938 325.854492188 492.307617188 352.564453125 492.307617188 c 0
 379.088867188 492.307617188 384.615234375 498.717773438 384.615234375 529.487304688 c 0
 384.615234375 557.692382812 390.03125 565.73828125 407.051757812 562.8203125 c 0
 419.872070312 560.623046875 433.608398438 558.424804688 439.102539062 557.692382812 c 0
 444.34765625 556.993164062 448.717773438 524.359375 448.717773438 485.897460938 c 0
 448.717773438 419.23046875 446.969726562 415.384765625 416.666992188 415.384765625 c 0
 389.95703125 415.384765625 384.615234375 408.974609375 384.615234375 376.922851562 c 0
 384.615234375 344.872070312 379.2734375 338.461914062 352.564453125 338.461914062 c 0
 325.854492188 338.461914062 320.512695312 332.051757812 320.512695312 300 c 0
 320.512695312 267.948242188 315.170898438 261.538085938 288.461914062 261.538085938 c 0
 261.751953125 261.538085938 256.41015625 255.127929688 256.41015625 223.077148438 c 2
 256.41015625 184.615234375 l 1
 352.564453125 184.615234375 l 1
 448.717773438 184.615234375 l 1
 448.717773438 146.154296875 l 2
 448.717773438 114.102539062 448.290039062 106 475 106 c 4
 505.916015625 106 496.5625 92.96875 497 26 c 4
 497.506835938 -51.51171875 498.046860601 -43.8905531464 476.76953125 -48.154296875 c 0
 444.639648438 -54.5927734375 448.717773438 -52.5882138434 448.717773438 -84.615234375 c 2
 448.717773438 -123.077148438 l 1
 352.564453125 -123.077148438 l 1
 256.41015625 -123.077148438 l 1
 256.41015625 -84.615234375 l 2
 256.41015625 -52.564453125 251.068359375 -46.154296875 224.359375 -46.154296875 c 0
 193.91015625 -46.154296875 192.307617188 -42.3076171875 192.307617188 30.76953125 c 0
 192.307617188 103.845703125 190.705078125 107.692382812 160.256835938 107.692382812 c 0
 133.546875 107.692382812 128.205078125 101.282226562 128.205078125 69.23046875 c 0
 128.205078125 37.1796875 122.86328125 30.76953125 96.154296875 30.76953125 c 0
 65.705078125 30.76953125 64.1025390625 34.615234375 64.1025390625 107.692382812 c 0
 64.1025390625 180.76953125 65.705078125 184.615234375 96.154296875 184.615234375 c 0
 122.86328125 184.615234375 128.205078125 191.025390625 128.205078125 223.077148438 c 0
 128.205078125 255.127929688 133.546875 261.538085938 160.256835938 261.538085938 c 0
 186.965820312 261.538085938 192.307617188 267.948242188 192.307617188 300 c 0
 192.307617188 332.051757812 197.649414062 338.461914062 224.359375 338.461914062 c 0
 251.240234375 338.461914062 256.41015625 344.872070312 256.41015625 378.205078125 c 2
 256.41015625 417.948242188 l 1
 160.256835938 413.461914062 l 1
 64.1025390625 408.974609375 l 1
 64.1025390625 451.282226562 l 2
 64.1025390625 474.359375 58.857421875 490.384765625 52.564453125 486.538085938 c 0
 46.0732421875 482.572265625 32.0517578125 482.852539062 20.5126953125 487.1796875 c 0
 5.318359375 492.877929688 0 512.8203125 0 564.102539062 c 0
 0 629.487304688 1.7802734375 633.333007812 32.0517578125 633.333007812 c 0
 58.7607421875 633.333007812 64.1025390625 639.743164062 64.1025390625 671.794921875 c 2
192.307617188 562.8203125 m 0
 192.307617188 629.487304688 190.559570312 633.333007812 160.256835938 633.333007812 c 0
 129.953125 633.333007812 128.205078125 629.487304688 128.205078125 562.8203125 c 0
 128.205078125 496.154296875 129.953125 492.307617188 160.256835938 492.307617188 c 0
 190.559570312 492.307617188 192.307617188 496.154296875 192.307617188 562.8203125 c 0
256.41015625 146.154296875 m 0
 256.41015625 178.205078125 251.068359375 184.615234375 224.359375 184.615234375 c 0
 197.649414062 184.615234375 192.307617188 178.205078125 192.307617188 146.154296875 c 0
 192.307617188 114.102539062 197.649414062 107.692382812 224.359375 107.692382812 c 0
 251.068359375 107.692382812 256.41015625 114.102539062 256.41015625 146.154296875 c 0
384.615234375 30.76953125 m 0
 384.615234375 103.845703125 383.012695312 107.692382812 352.564453125 107.692382812 c 0
 322.115234375 107.692382812 320.512695312 103.845703125 320.512695312 30.76953125 c 0
 320.512695312 -42.3076171875 322.115234375 -46.154296875 352.564453125 -46.154296875 c 0
 383.012695312 -46.154296875 384.615234375 -42.3076171875 384.615234375 30.76953125 c 0
EndSplineSet
Validated: 33
EndChar

StartChar: asciicircum
Encoding: 94 94 2
Width: 500
Flags: HW
LayerCount: 2
Fore
SplineSet
164.102539062 751.922851562 m 0
 167.754882812 785.3984375 171.154296875 787.1796875 231.41015625 787.1796875 c 0
 292.948242188 787.1796875 294.872070312 786.013671875 294.872070312 748.717773438 c 0
 294.872070312 716.666992188 300.213867188 710.256835938 326.922851562 710.256835938 c 0
 353.6328125 710.256835938 358.974609375 703.845703125 358.974609375 671.794921875 c 0
 358.974609375 638.461914062 363.333007812 633.333007812 391.666992188 633.333007812 c 0
 420.198242188 633.333007812 423.869140625 628.845703125 420.512695312 598.077148438 c 0
 417.03125 566.16015625 410.897460938 562.456054688 355.76953125 558.974609375 c 0
 295.512695312 555.168945312 294.872070312 555.540039062 294.872070312 594.23046875 c 0
 294.872070312 632.938476562 294.23046875 633.333007812 231.41015625 633.333007812 c 0
 171.154296875 633.333007812 167.754882812 631.552734375 164.102539062 598.077148438 c 0
 160.62109375 566.16015625 154.487304688 562.456054688 99.359375 558.974609375 c 0
 39.1025390625 555.168945312 38.4619140625 555.526367188 38.4619140625 592.948242188 c 0
 38.4619140625 622.435546875 45.5234375 632.463867188 70.5126953125 638.461914062 c 0
 93.58984375 644 102.564453125 654.948242188 102.564453125 677.564453125 c 0
 102.564453125 700.640625 110.216796875 709.995117188 131.41015625 712.8203125 c 0
 152.389648438 715.618164062 161.305664062 726.282226562 164.102539062 751.922851562 c 0
EndSplineSet
Validated: 33
EndChar

StartChar: ampersand
Encoding: 38 38 3
Width: 500
Flags: HW
LayerCount: 2
Fore
SplineSet
73.1865234375 607.692382812 m 0
 66.9755859375 631.646484375 72.9482421875 633.333007812 163.974609375 633.333007812 c 0
 258.845703125 633.333007812 261.41015625 632.506835938 261.41015625 601.922851562 c 0
 261.41015625 578.845703125 269.063476562 569.4921875 290.256835938 566.666992188 c 0
 315.784179688 563.262695312 319.544921875 554.487304688 322.948242188 490.384765625 c 0
 326.48828125 423.717773438 324.446289062 417.591796875 297.307617188 413.461914062 c 0
 276.557617188 410.303710938 266.680664062 398.717773438 263.974609375 374.359375 c 0
 260.455078125 342.689453125 254.154767951 345.701711384 199.872070312 335.897460938 c 2
 134 324 l 1
 120 193 l 1
 119 130 138.571289062 46.4892578125 138 51 c 1
 196.666992188 30.76953125 l 1
 261.41015625 30.76953125 l 1
 261.41015625 107.692382812 l 2
 261.41015625 182.051757812 260.3203125 184.615234375 228.717773438 184.615234375 c 0
 200.186523438 184.615234375 196.515625 189.102539062 199.872070312 219.872070312 c 2
 203.717773438 255.127929688 l 1
 328.717773438 258.974609375 l 1
 453.717773438 262.8203125 l 1
 453.717773438 223.717773438 l 2
 453.717773438 190.384765625 448.989257812 184.615234375 421.666992188 184.615234375 c 0
 391.217773438 184.615234375 389.615234375 180.76953125 389.615234375 107.692382812 c 0
 389.615234375 34.615234375 391.217773438 30.76953125 421.666992188 30.76953125 c 0
 448.375976562 30.76953125 453.717773438 24.359375 453.717773438 -7.6923828125 c 0
 453.717773438 -45.384765625 452.435546875 -46.154296875 389.615234375 -46.154296875 c 0
 326.794921875 -46.154296875 325.512695312 -45.384765625 325.512695312 -7.6923828125 c 0
 325.512695312 24.359375 320.170898438 30.76953125 293.461914062 30.76953125 c 0
 266.751953125 30.76953125 261.41015625 24.359375 261.41015625 -7.6923828125 c 2
 261.41015625 -46.154296875 l 1
 165.256835938 -46.154296875 l 1
 69.1025390625 -46.154296875 l 1
 69.1025390625 -7.6923828125 l 2
 69.1025390625 24.359375 63.5804814464 30.5230978624 36.41015625 30.76953125 c 2
 11 31 l 5
 8 172 l 2
 5.04530738112 310.870553088 7.7431640625 323.286132812 41.3330078125 327.127929688 c 0
 64.81640625 329.813476562 69.5855736453 348.077107249 66.5380859375 375 c 0
 64.361328125 394.23046875 55.7373046875 409.80859375 46.6669921875 410.897460938 c 0
 37.6923828125 411.974609375 24.7177734375 413.384765625 17.1796875 414.102539062 c 0
 8.9853515625 414.8828125 5.22265625 444.23046875 7.564453125 489.102539062 c 0
 10.4404296875 544.23046875 16.259765625 562.905273438 30.640625 563.158203125 c 0
 63.974609375 563.743164062 80.181640625 580.708007812 73.1865234375 607.692382812 c 0
197.307617188 485.897460938 m 0
 197.307617188 552.564453125 195.559570312 556.41015625 165.256835938 556.41015625 c 0
 134.953125 556.41015625 133.205078125 552.564453125 133.205078125 485.897460938 c 0
 133.205078125 419.23046875 134.953125 415.384765625 165.256835938 415.384765625 c 0
 195.559570312 415.384765625 197.307617188 419.23046875 197.307617188 485.897460938 c 0
EndSplineSet
Validated: 33
EndChar

StartChar: asterisk
Encoding: 42 42 4
Width: 500
Flags: HW
LayerCount: 2
Fore
SplineSet
72.435546875 483.974609375 m 0
 77.033203125 488.572265625 105.76953125 492.307617188 136.538085938 492.307617188 c 0
 190.384765625 492.307617188 192.307617188 490.981445312 192.307617188 453.845703125 c 0
 192.307617188 421.794921875 197.649414062 415.384765625 224.359375 415.384765625 c 0
 251.068359375 415.384765625 256.41015625 421.794921875 256.41015625 453.845703125 c 0
 256.41015625 491.538085938 257.692382812 492.307617188 320.512695312 492.307617188 c 0
 383.333007812 492.307617188 384.615234375 491.538085938 384.615234375 453.845703125 c 0
 384.615234375 432.051757812 379.059570312 414.829101562 371.794921875 414.102539062 c 0
 364.615234375 413.384765625 351.922851562 411.974609375 342.948242188 410.897460938 c 0
 334.20703125 409.848632812 325.174804688 392.948242188 323.077148438 373.717773438 c 0
 319.344726562 339.508789062 321.154296875 338.461914062 383.974609375 338.461914062 c 0
 446.794921875 338.461914062 448.717773438 337.319335938 448.717773438 300 c 0
 448.717773438 262.307617188 447.435546875 261.538085938 384.615234375 261.538085938 c 0
 321.794921875 261.538085938 320.512695312 260.76953125 320.512695312 223.077148438 c 0
 320.512695312 191.025390625 325.854492188 184.615234375 352.564453125 184.615234375 c 0
 379.2734375 184.615234375 384.615234375 178.205078125 384.615234375 146.154296875 c 0
 384.615234375 108.461914062 383.333007812 107.692382812 320.512695312 107.692382812 c 0
 257.692382812 107.692382812 256.41015625 108.461914062 256.41015625 146.154296875 c 0
 256.41015625 178.205078125 251.068359375 184.615234375 224.359375 184.615234375 c 0
 197.649414062 184.615234375 192.307617188 178.205078125 192.307617188 146.154296875 c 0
 192.307617188 108.461914062 191.025390625 107.692382812 128.205078125 107.692382812 c 0
 65.384765625 107.692382812 64.1025390625 108.461914062 64.1025390625 146.154296875 c 0
 64.1025390625 178.205078125 69.4443359375 184.615234375 96.154296875 184.615234375 c 0
 122.86328125 184.615234375 128.205078125 191.025390625 128.205078125 223.077148438 c 0
 128.205078125 260.396484375 126.282226562 261.538085938 63.4619140625 261.538085938 c 0
 0.640625 261.538085938 -1.16796875 262.5859375 2.564453125 296.794921875 c 0
 6.0458984375 328.7109375 12.1796875 332.416015625 67.3076171875 335.897460938 c 0
 125 339.541015625 128.205078125 341.734375 128.205078125 377.564453125 c 0
 128.205078125 409.615234375 123.31640625 415.384765625 96.154296875 415.384765625 c 0
 70.5126953125 415.384765625 64.1025390625 421.41015625 64.1025390625 445.512695312 c 0
 64.1025390625 462.1796875 67.826171875 479.364257812 72.435546875 483.974609375 c 0
EndSplineSet
Validated: 33
EndChar

StartChar: parenleft
Encoding: 40 40 5
Width: 500
Flags: HW
LayerCount: 2
Fore
SplineSet
230.76953125 601.282226562 m 0
 230.76953125 631.112304688 235.256835938 633.333007812 295.512695312 633.333007812 c 0
 358.333007812 633.333007812 360.142578125 632.286132812 356.41015625 598.077148438 c 0
 353.61328125 572.435546875 344.697265625 561.771484375 323.717773438 558.974609375 c 0
 298.018554688 555.547851562 294.872070312 547.435546875 294.872070312 484.615234375 c 0
 294.872070312 416.666992188 289.337890625 408.466796875 247.435546875 414.333007812 c 0
 234.700195312 416.116210938 230.76953125 371.154296875 230.76953125 223.717773438 c 2
 230.76953125 30.76953125 l 1
 262.8203125 30.76953125 l 2
 293.26953125 30.76953125 294.872070312 26.9228515625 294.872070312 -46.154296875 c 0
 294.872070312 -119.23046875 296.474609375 -123.077148438 326.922851562 -123.077148438 c 0
 353.6328125 -123.077148438 358.974609375 -129.487304688 358.974609375 -161.538085938 c 0
 358.974609375 -199.23046875 357.692382812 -200 294.872070312 -200 c 0
 232.051757812 -200 230.76953125 -199.23046875 230.76953125 -161.538085938 c 0
 230.76953125 -129.487304688 225.427734375 -123.077148438 198.717773438 -123.077148438 c 0
 168.26953125 -123.077148438 166.666992188 -119.23046875 166.666992188 -46.154296875 c 0
 166.666992188 26.9228515625 165.064453125 30.76953125 134.615234375 30.76953125 c 2
 102.564453125 30.76953125 l 1
 102.564453125 223.077148438 l 1
 102.564453125 415.384765625 l 1
 134.615234375 415.384765625 l 2
 165.064453125 415.384765625 166.666992188 419.23046875 166.666992188 492.307617188 c 0
 166.666992188 565.384765625 168.26953125 569.23046875 198.717773438 569.23046875 c 0
 224.359375 569.23046875 230.76953125 575.640625 230.76953125 601.282226562 c 0
EndSplineSet
Validated: 33
EndChar

StartChar: parenright
Encoding: 41 41 6
Width: 500
Flags: HW
LayerCount: 2
Fore
SplineSet
162.8203125 635.845703125 m 0
 229.487304688 641.1796875 243.58984375 634.920898438 243.58984375 600 c 0
 243.58984375 579.487304688 252.369140625 569.341796875 272.435546875 566.666992188 c 0
 297.739257812 563.29296875 301.75390625 553.845703125 305.127929688 489.743164062 c 0
 308.501953125 425.640625 312.438476562 416.194335938 337.1796875 412.8203125 c 0
 364.524414062 409.091796875 365.501953125 403.205078125 369.23046875 219.872070312 c 2
 373.077148438 30.76953125 l 1
 340.384765625 30.76953125 l 2
 308.782226562 30.76953125 307.692382812 28.205078125 307.692382812 -46.154296875 c 0
 307.692382812 -119.23046875 306.08984375 -123.077148438 275.640625 -123.077148438 c 0
 248.931640625 -123.077148438 243.58984375 -129.487304688 243.58984375 -161.538085938 c 0
 243.58984375 -199.23046875 242.307617188 -200 179.487304688 -200 c 0
 116.666992188 -200 115.384765625 -199.23046875 115.384765625 -161.538085938 c 0
 115.384765625 -129.487304688 120.7265625 -123.077148438 147.435546875 -123.077148438 c 0
 177.884765625 -123.077148438 179.487304688 -119.23046875 179.487304688 -46.154296875 c 0
 179.487304688 28.205078125 180.577148438 30.76953125 212.1796875 30.76953125 c 2
 244.872070312 30.76953125 l 1
 241.025390625 219.872070312 l 2
 237.270507812 404.487304688 236.495117188 409.065429688 208.333007812 412.8203125 c 0
 182.3984375 416.278320312 179.487304688 423.717773438 179.487304688 486.538085938 c 0
 179.487304688 551.922851562 177.428710938 556.41015625 147.435546875 556.41015625 c 0
 120.2734375 556.41015625 115.384765625 562.1796875 115.384765625 594.23046875 c 0
 115.384765625 628.984375 119.23046875 632.359375 162.8203125 635.845703125 c 0
EndSplineSet
Validated: 33
EndChar

StartChar: underscore
Encoding: 95 95 7
Width: 500
Flags: HW
LayerCount: 2
Fore
SplineSet
10.3896484375 -140.4765625 m 0
 11.3388671875 -133.020507812 96.4287109375 -128.571289062 238.095703125 -128.571289062 c 2
 464.286132812 -128.571289062 l 1
 464.286132812 -164.286132812 l 1
 464.286132812 -200 l 1
 234.5234375 -197.03125 l 2
 -8.3330078125 -193.893554688 3.2197265625 -196.80859375 10.3896484375 -140.4765625 c 0
EndSplineSet
Validated: 33
EndChar

StartChar: plus
Encoding: 43 43 8
Width: 500
Flags: HW
LayerCount: 2
Fore
SplineSet
152.94140625 447.647460938 m 1
 152.94140625 517.647460938 l 1
 211.764648438 517.647460938 l 1
 270.587890625 517.647460938 l 1
 270.587890625 447.05859375 l 1
 270.587890625 376.470703125 l 1
 329.412109375 376.470703125 l 2
 387.05859375 376.470703125 388.235351562 375.764648438 388.235351562 341.176757812 c 0
 388.235351562 306.587890625 387.05859375 305.8828125 329.412109375 305.8828125 c 2
 270.587890625 305.8828125 l 1
 270.587890625 235.293945312 l 1
 270.587890625 164.706054688 l 1
 211.764648438 164.706054688 l 1
 152.94140625 164.706054688 l 1
 152.94140625 235.293945312 l 1
 152.94140625 305.8828125 l 1
 93.529296875 305.8828125 l 2
 35.8828125 305.8828125 39.087890625 308.440429688 38 340 c 0
 37 369 43.5224609375 369.735351562 97.05859375 373.1171875 c 2
 152.94140625 377.647460938 l 1
 152.94140625 447.647460938 l 1
EndSplineSet
Validated: 33
EndChar

StartChar: braceleft
Encoding: 123 123 9
Width: 500
Flags: HW
LayerCount: 2
Fore
SplineSet
250 615.4765625 m 0
 250 643.17578125 254.166992188 645.23828125 310.119140625 645.23828125 c 0
 368.452148438 645.23828125 370.131835938 644.265625 366.666992188 612.5 c 0
 364.069335938 588.690429688 355.790039062 578.788085938 336.309570312 576.190429688 c 0
 310.950195312 572.809570312 309.5234375 567.26171875 309.5234375 472.0234375 c 0
 309.5234375 373.213867188 308.995117188 371.428710938 279.76171875 371.428710938 c 0
 254.959960938 371.428710938 250 365.4765625 250 335.713867188 c 0
 250 305.952148438 245.040039062 300 220.23828125 300 c 0
 195.436523438 300 190.4765625 294.047851562 190.4765625 264.286132812 c 0
 190.4765625 234.5234375 195.436523438 228.571289062 220.23828125 228.571289062 c 0
 245.040039062 228.571289062 250 222.619140625 250 192.857421875 c 0
 250 163.095703125 254.959960938 157.142578125 279.76171875 157.142578125 c 0
 309.193359375 157.142578125 309.5234375 155.952148438 309.5234375 50 c 0
 309.5234375 -55.9521484375 309.854492188 -57.142578125 339.286132812 -57.142578125 c 0
 364.086914062 -57.142578125 369.047851562 -63.095703125 369.047851562 -92.857421875 c 0
 369.047851562 -127.857421875 367.857421875 -128.571289062 309.5234375 -128.571289062 c 0
 251.190429688 -128.571289062 250 -127.857421875 250 -92.857421875 c 0
 250 -63.095703125 245.040039062 -57.142578125 220.23828125 -57.142578125 c 0
 190.806640625 -57.142578125 190.4765625 -55.9521484375 190.4765625 50 c 0
 190.4765625 155.952148438 190.145507812 157.142578125 160.713867188 157.142578125 c 0
 135.913085938 157.142578125 130.952148438 163.095703125 130.952148438 192.857421875 c 0
 130.952148438 222.619140625 125.9921875 228.571289062 101.190429688 228.571289062 c 0
 76.388671875 228.571289062 71.4287109375 234.5234375 71.4287109375 264.286132812 c 0
 71.4287109375 294.047851562 76.388671875 300 101.190429688 300 c 0
 125.9921875 300 130.952148438 305.952148438 130.952148438 335.713867188 c 0
 130.952148438 365.4765625 135.913085938 371.428710938 160.713867188 371.428710938 c 0
 190.122070312 371.428710938 190.4765625 372.619140625 190.4765625 471.428710938 c 0
 190.4765625 567.857421875 191.5390625 571.68359375 220.23828125 578.571289062 c 0
 241.666992188 583.713867188 250 594.047851562 250 615.4765625 c 0
EndSplineSet
Validated: 33
EndChar

StartChar: braceright
Encoding: 125 125 10
Width: 500
Flags: HW
LayerCount: 2
Fore
SplineSet
83.3330078125 609.5234375 m 0
 83.3330078125 644.15625 85.119140625 645.23828125 142.26171875 645.23828125 c 0
 198.213867188 645.23828125 201.37109375 643.584960938 204.76171875 612.5 c 0
 207.359375 588.690429688 214.827148438 579.76171875 232.142578125 579.76171875 c 0
 253.762695312 579.76171875 256.28125 570.23828125 259.5234375 476.190429688 c 0
 262.848632812 379.76171875 264.901367188 372.373046875 289.286132812 369.047851562 c 0
 307.715820312 366.534179688 316.534179688 355.952148438 319.047851562 333.333007812 c 0
 321.560546875 310.713867188 330.37890625 300.131835938 348.809570312 297.619140625 c 0
 366.904296875 295.151367188 376.103515625 283.928710938 378.571289062 261.309570312 c 0
 381.688476562 232.73828125 378.279296875 228.571289062 351.786132812 228.571289062 c 0
 325.4765625 228.571289062 321.428710938 223.809570312 321.428710938 192.857421875 c 0
 321.428710938 163.095703125 316.467773438 157.142578125 291.666992188 157.142578125 c 0
 262.235351562 157.142578125 261.904296875 155.952148438 261.904296875 50 c 0
 261.904296875 -55.9521484375 261.57421875 -57.142578125 232.142578125 -57.142578125 c 0
 207.340820312 -57.142578125 202.380859375 -63.095703125 202.380859375 -92.857421875 c 0
 202.380859375 -127.857421875 201.190429688 -128.571289062 142.857421875 -128.571289062 c 0
 84.5234375 -128.571289062 83.3330078125 -127.857421875 83.3330078125 -92.857421875 c 0
 83.3330078125 -63.095703125 88.2939453125 -57.142578125 113.095703125 -57.142578125 c 0
 142.526367188 -57.142578125 142.857421875 -55.9521484375 142.857421875 50 c 0
 142.857421875 155.952148438 143.1875 157.142578125 172.619140625 157.142578125 c 0
 197.420898438 157.142578125 202.380859375 163.095703125 202.380859375 192.857421875 c 0
 202.380859375 223.809570312 206.428710938 228.571289062 232.73828125 228.571289062 c 0
 259.231445312 228.571289062 262.640625 232.73828125 259.5234375 261.309570312 c 0
 257.056640625 283.928710938 247.857421875 295.151367188 229.76171875 297.619140625 c 0
 211.33203125 300.131835938 202.513671875 310.713867188 200 333.333007812 c 0
 197.486328125 355.952148438 188.4921875 366.534179688 169.642578125 369.047851562 c 0
 144.283203125 372.428710938 142.857421875 377.9765625 142.857421875 473.213867188 c 0
 142.857421875 572.0234375 142.329101562 573.809570312 113.095703125 573.809570312 c 0
 88.2939453125 573.809570312 83.3330078125 579.76171875 83.3330078125 609.5234375 c 0
EndSplineSet
Validated: 33
EndChar

StartChar: bar
Encoding: 124 124 11
Width: 500
Flags: HW
LayerCount: 2
Fore
SplineSet
142.857421875 222.619140625 m 1
 142.857421875 645.23828125 l 1
 202.380859375 645.23828125 l 1
 261.904296875 645.23828125 l 1
 261.904296875 222.619140625 l 1
 261.904296875 -200 l 1
 202.380859375 -200 l 1
 142.857421875 -200 l 1
 142.857421875 222.619140625 l 1
EndSplineSet
Validated: 1
EndChar

StartChar: equal
Encoding: 61 61 12
Width: 500
Flags: HW
LayerCount: 2
Fore
SplineSet
47.619140625 264.880859375 m 1
 47.619140625 301.190429688 l 1
 223.213867188 297.619140625 l 1
 398.809570312 294.047851562 l 1
 402.380859375 261.309570312 l 1
 405.952148438 228.571289062 l 1
 226.786132812 228.571289062 l 1
 47.619140625 228.571289062 l 1
 47.619140625 264.880859375 l 1
47.619140625 407.73828125 m 1
 47.619140625 444.047851562 l 1
 223.213867188 440.4765625 l 1
 398.809570312 436.904296875 l 1
 402.380859375 404.166992188 l 1
 405.952148438 371.428710938 l 1
 226.786132812 371.428710938 l 1
 47.619140625 371.428710938 l 1
 47.619140625 407.73828125 l 1
EndSplineSet
Validated: 1
EndChar

StartChar: colon
Encoding: 58 58 13
Width: 500
Flags: HW
LayerCount: 2
Fore
SplineSet
105.8828125 94.1171875 m 1
 105.8828125 164.706054688 l 1
 194.1171875 164.706054688 l 1
 282.352539062 164.706054688 l 1
 282.352539062 94.1171875 l 1
 282.352539062 23.529296875 l 1
 194.1171875 23.529296875 l 1
 105.8828125 23.529296875 l 1
 105.8828125 94.1171875 l 1
105.8828125 447.05859375 m 1
 105.8828125 517.647460938 l 1
 194.1171875 517.647460938 l 1
 282.352539062 517.647460938 l 1
 282.352539062 447.05859375 l 1
 282.352539062 376.470703125 l 1
 194.1171875 376.470703125 l 1
 105.8828125 376.470703125 l 1
 105.8828125 447.05859375 l 1
EndSplineSet
Validated: 1
EndChar

StartChar: quotedbl
Encoding: 34 34 14
Width: 500
Flags: HW
LayerCount: 2
Fore
SplineSet
83.3330078125 544.047851562 m 1
 83.3330078125 645.23828125 l 1
 142.857421875 645.23828125 l 1
 202.380859375 645.23828125 l 1
 202.380859375 544.047851562 l 1
 202.380859375 442.857421875 l 1
 142.857421875 442.857421875 l 1
 83.3330078125 442.857421875 l 1
 83.3330078125 544.047851562 l 1
321.428710938 543.452148438 m 1
 321.428710938 651.190429688 l 1
 380.952148438 647.0234375 l 1
 440.4765625 642.857421875 l 1
 440.4765625 542.857421875 l 2
 440.4765625 488.095703125 436.4375 442.318359375 431.547851562 441.666992188 c 0
 426.715820312 441.022460938 399.404296875 439.383789062 372.0234375 438.095703125 c 2
 321.428710938 435.713867188 l 1
 321.428710938 543.452148438 l 1
EndSplineSet
Validated: 1
EndChar

StartChar: less
Encoding: 60 60 15
Width: 500
Flags: HW
LayerCount: 2
Fore
SplineSet
295.23828125 612.5 m 0
 298.595703125 643.2734375 302.380859375 645.23828125 358.333007812 645.23828125 c 0
 416.666992188 645.23828125 417.786132812 644.583007812 414.286132812 612.5 c 0
 411.688476562 588.690429688 403.409179688 578.788085938 383.928710938 576.190429688 c 0
 364.249023438 573.56640625 357.142578125 564.880859375 357.142578125 543.452148438 c 0
 357.142578125 520.119140625 351.190429688 514.286132812 327.380859375 514.286132812 c 0
 302.579101562 514.286132812 297.619140625 508.333007812 297.619140625 478.571289062 c 0
 297.619140625 448.809570312 292.659179688 442.857421875 267.857421875 442.857421875 c 0
 243.055664062 442.857421875 238.095703125 436.904296875 238.095703125 407.142578125 c 0
 238.095703125 377.380859375 233.134765625 371.428710938 208.333007812 371.428710938 c 0
 183.111328125 371.428710938 178.571289062 366.071289062 178.571289062 336.309570312 c 0
 178.571289062 308.928710938 184.473632812 300.403320312 205.357421875 297.619140625 c 0
 224.206054688 295.10546875 233.201171875 284.5234375 235.713867188 261.904296875 c 0
 238.227539062 239.286132812 247.045898438 228.704101562 265.4765625 226.190429688 c 0
 283.571289062 223.72265625 292.770507812 212.5 295.23828125 189.880859375 c 0
 298.095703125 163.690429688 304.642578125 157.142578125 327.9765625 157.142578125 c 0
 352.693359375 157.142578125 357.142578125 151.786132812 357.142578125 122.0234375 c 0
 357.142578125 94.642578125 363.044921875 86.1181640625 383.928710938 83.3330078125 c 0
 403.409179688 80.736328125 411.688476562 70.8330078125 414.286132812 47.0234375 c 0
 417.786132812 14.9404296875 416.666992188 14.2861328125 358.333007812 14.2861328125 c 0
 302.380859375 14.2861328125 298.595703125 16.25 295.23828125 47.0234375 c 0
 292.770507812 69.642578125 283.571289062 80.8662109375 265.4765625 83.3330078125 c 0
 247.045898438 85.8466796875 238.227539062 96.4287109375 235.713867188 119.047851562 c 0
 233.201171875 141.666992188 224.3828125 152.249023438 205.952148438 154.76171875 c 0
 187.522460938 157.275390625 178.704101562 167.857421875 176.190429688 190.4765625 c 0
 173.677734375 213.095703125 164.859375 223.677734375 146.428710938 226.190429688 c 0
 127.998046875 228.704101562 119.1796875 239.286132812 116.666992188 261.904296875 c 0
 114.153320312 284.5234375 105.159179688 295.10546875 86.3095703125 297.619140625 c 0
 65.42578125 300.403320312 59.5234375 308.928710938 59.5234375 336.309570312 c 0
 59.5234375 366.071289062 64.0634765625 371.428710938 89.2861328125 371.428710938 c 0
 114.086914062 371.428710938 119.047851562 377.380859375 119.047851562 407.142578125 c 0
 119.047851562 436.904296875 124.0078125 442.857421875 148.809570312 442.857421875 c 0
 173.611328125 442.857421875 178.571289062 448.809570312 178.571289062 478.571289062 c 0
 178.571289062 508.333007812 183.532226562 514.286132812 208.333007812 514.286132812 c 0
 232.142578125 514.286132812 238.095703125 520.119140625 238.095703125 543.452148438 c 0
 238.095703125 564.880859375 245.201171875 573.56640625 264.880859375 576.190429688 c 0
 284.361328125 578.788085938 292.640625 588.690429688 295.23828125 612.5 c 0
EndSplineSet
Validated: 33
EndChar

StartChar: greater
Encoding: 62 62 16
Width: 500
Flags: HW
LayerCount: 2
Fore
SplineSet
59.5234375 609.5234375 m 0
 59.5234375 643.650390625 61.904296875 645.23828125 113.095703125 645.23828125 c 0
 161.904296875 645.23828125 166.666992188 642.592773438 166.666992188 615.4765625 c 0
 166.666992188 594.047851562 175 583.713867188 196.428710938 578.571289062 c 0
 217.857421875 573.428710938 226.190429688 563.428710938 226.190429688 542.857421875 c 0
 226.190429688 520 232.142578125 514.286132812 255.952148438 514.286132812 c 0
 280.75390625 514.286132812 285.713867188 508.333007812 285.713867188 478.571289062 c 0
 285.713867188 448.809570312 290.674804688 442.857421875 315.4765625 442.857421875 c 0
 340.27734375 442.857421875 345.23828125 436.904296875 345.23828125 407.142578125 c 0
 345.23828125 377.380859375 350.198242188 371.428710938 375 371.428710938 c 0
 400.221679688 371.428710938 404.76171875 366.071289062 404.76171875 336.309570312 c 0
 404.76171875 308.928710938 398.860351562 300.403320312 377.9765625 297.619140625 c 0
 359.126953125 295.10546875 350.131835938 284.5234375 347.619140625 261.904296875 c 0
 345.10546875 239.286132812 336.287109375 228.704101562 317.857421875 226.190429688 c 0
 299.426757812 223.677734375 290.608398438 213.095703125 288.095703125 190.4765625 c 0
 285.58203125 167.857421875 276.763671875 157.275390625 258.333007812 154.76171875 c 0
 239.4765625 152.190429688 232.142578125 142.857421875 232.142578125 121.428710938 c 0
 232.142578125 98.8095703125 225 90.23828125 202.380859375 85.7138671875 c 0
 180.736328125 81.3857421875 171.645507812 70.8330078125 169.047851562 47.0234375 c 0
 165.69921875 16.33203125 161.904296875 14.2861328125 108.333007812 14.2861328125 c 0
 51.1904296875 14.2861328125 51.1904296875 14.2861328125 56.5478515625 50 c 0
 60.2978515625 75 68.51171875 85.7138671875 83.9287109375 85.7138671875 c 0
 99.1455078125 85.7138671875 107.056640625 95.8330078125 109.5234375 118.452148438 c 0
 111.991210938 141.071289062 121.190429688 152.293945312 139.286132812 154.76171875 c 0
 157.715820312 157.275390625 166.534179688 167.857421875 169.047851562 190.4765625 c 0
 171.560546875 213.095703125 180.37890625 223.677734375 198.809570312 226.190429688 c 0
 217.240234375 228.704101562 226.05859375 239.286132812 228.571289062 261.904296875 c 0
 231.084960938 284.5234375 240.079101562 295.10546875 258.928710938 297.619140625 c 0
 279.8125 300.403320312 285.713867188 308.928710938 285.713867188 336.309570312 c 0
 285.713867188 366.071289062 281.174804688 371.428710938 255.952148438 371.428710938 c 0
 231.150390625 371.428710938 226.190429688 377.380859375 226.190429688 407.142578125 c 0
 226.190429688 436.904296875 221.23046875 442.857421875 196.428710938 442.857421875 c 0
 172.619140625 442.857421875 166.666992188 448.571289062 166.666992188 471.428710938 c 0
 166.666992188 492 158.333007812 502 136.904296875 507.142578125 c 0
 115.4765625 512.286132812 107.142578125 522.619140625 107.142578125 544.047851562 c 0
 107.142578125 565.4765625 100.4765625 573.809570312 83.3330078125 573.809570312 c 0
 65.0791015625 573.809570312 59.5234375 582.142578125 59.5234375 609.5234375 c 0
EndSplineSet
Validated: 33
EndChar

StartChar: question
Encoding: 63 63 17
Width: 500
Flags: HW
LayerCount: 2
Fore
SplineSet
166.666992188 85.7138671875 m 1
 166.666992188 157.142578125 l 1
 226.190429688 157.142578125 l 1
 285.713867188 157.142578125 l 1
 285.713867188 85.7138671875 l 1
 285.713867188 14.2861328125 l 1
 226.190429688 14.2861328125 l 1
 166.666992188 14.2861328125 l 1
 166.666992188 85.7138671875 l 1
107.142578125 615.4765625 m 0
 107.142578125 645.23828125 107.142578125 645.23828125 226.190429688 645.23828125 c 2
 345.23828125 645.23828125 l 1
 345.23828125 615.4765625 l 2
 345.23828125 591.666992188 351.190429688 585.713867188 375 585.713867188 c 0
 403.58984375 585.713867188 404.76171875 582.73828125 404.76171875 510.119140625 c 0
 404.76171875 439.880859375 402.86328125 434.608398438 377.9765625 435.713867188 c 0
 357.142578125 436.640625 350.396484375 429.76171875 347.619140625 404.76171875 c 0
 345.10546875 382.142578125 336.287109375 371.560546875 317.857421875 369.047851562 c 0
 295.083007812 365.942382812 291.201171875 356.547851562 288.095703125 297.0234375 c 2
 284.5234375 228.571289062 l 1
 225.595703125 228.571289062 l 1
 166.666992188 228.571289062 l 1
 166.666992188 300 l 2
 166.666992188 367.857421875 168.125 371.428710938 195.833007812 371.428710938 c 0
 219.166992188 371.428710938 225.713867188 377.9765625 228.571289062 404.166992188 c 0
 231.168945312 427.9765625 239.448242188 437.87890625 258.928710938 440.4765625 c 0
 283.010742188 443.6875 285.713867188 450.595703125 285.713867188 508.928710938 c 2
 285.713867188 573.809570312 l 1
 226.190429688 573.809570312 l 1
 166.666992188 573.809570312 l 1
 166.666992188 508.333007812 l 1
 166.666992188 442.857421875 l 1
 107.142578125 442.857421875 l 1
 47.619140625 442.857421875 l 1
 47.619140625 507.142578125 l 2
 47.619140625 565.4765625 50.375 572.08984375 77.380859375 578.571289062 c 0
 98.8095703125 583.713867188 107.142578125 594.047851562 107.142578125 615.4765625 c 0
EndSplineSet
Validated: 33
EndChar

StartChar: numbersign
Encoding: 35 35 18
Width: 500
Flags: HW
LayerCount: 2
Fore
SplineSet
83.3330078125 580.357421875 m 2
 83.3330078125 645.23828125 l 1
 142.857421875 645.23828125 l 1
 202.380859375 645.23828125 l 1
 202.380859375 579.76171875 l 2
 202.380859375 517.857421875 204.00390625 514.286132812 232.142578125 514.286132812 c 0
 260.28125 514.286132812 261.904296875 517.857421875 261.904296875 579.76171875 c 2
 261.904296875 645.23828125 l 1
 321.428710938 645.23828125 l 1
 380.952148438 645.23828125 l 1
 380.952148438 579.76171875 l 2
 380.952148438 517.857421875 382.576171875 514.286132812 410.713867188 514.286132812 c 0
 435.936523438 514.286132812 440.4765625 508.928710938 440.4765625 479.166992188 c 0
 440.4765625 451.786132812 434.57421875 443.260742188 413.690429688 440.4765625 c 0
 388.588867188 437.12890625 386.680664062 430.357421875 383.333007812 332.73828125 c 2
 379.76171875 228.571289062 l 1
 410.119140625 228.571289062 l 2
 435.416992188 228.571289062 440.4765625 222.619140625 440.4765625 192.857421875 c 0
 440.4765625 163.095703125 435.515625 157.142578125 410.713867188 157.142578125 c 0
 382.440429688 157.142578125 380.952148438 153.571289062 380.952148438 85.7138671875 c 2
 380.952148438 14.2861328125 l 1
 321.428710938 14.2861328125 l 1
 261.904296875 14.2861328125 l 1
 261.904296875 86.3095703125 l 2
 261.904296875 154.166992188 260.35546875 158.126953125 235.119140625 154.76171875 c 0
 211.56640625 151.62109375 207.90234375 142.857421875 204.76171875 82.142578125 c 2
 201.190429688 13.095703125 l 1
 145.23828125 16.6669921875 l 1
 89.2861328125 20.23828125 l 1
 85.7138671875 88.6904296875 l 2
 82.3603515625 152.9765625 80.3310546875 157.142578125 52.380859375 157.142578125 c 0
 26.4072265625 157.142578125 23.0732421875 161.309570312 26.1904296875 189.880859375 c 0
 28.7880859375 213.690429688 37.0673828125 223.592773438 56.5478515625 226.190429688 c 0
 81.986328125 229.58203125 83.3330078125 235.119140625 83.3330078125 336.309570312 c 0
 83.3330078125 442.26171875 83.1640625 442.857421875 52.9765625 442.857421875 c 0
 26.482421875 442.857421875 23.0732421875 447.0234375 26.1904296875 475.595703125 c 0
 28.7880859375 499.404296875 37.0673828125 509.307617188 56.5478515625 511.904296875 c 0
 80.6298828125 515.116210938 83.3330078125 522.0234375 83.3330078125 580.357421875 c 2
261.904296875 335.713867188 m 0
 261.904296875 432.142578125 259.76171875 442.857421875 240.4765625 442.857421875 c 0
 205.522460938 442.857421875 202.380859375 433.333007812 202.380859375 327.380859375 c 0
 202.380859375 229.76171875 202.739257812 228.571289062 232.142578125 228.571289062 c 0
 261.57421875 228.571289062 261.904296875 229.76171875 261.904296875 335.713867188 c 0
EndSplineSet
Validated: 33
EndChar

StartChar: slash
Encoding: 47 47 19
Width: 500
Flags: HW
LayerCount: 2
Fore
SplineSet
285.713867188 580.357421875 m 2
 285.713867188 645.23828125 l 1
 345.23828125 645.23828125 l 1
 404.76171875 645.23828125 l 1
 404.76171875 580.357421875 l 2
 404.76171875 522.0234375 402.05859375 515.116210938 377.9765625 511.904296875 c 0
 354.479492188 508.771484375 350.751953125 500 347.619140625 440.4765625 c 0
 344.486328125 380.952148438 340.831054688 372.180664062 317.857421875 369.047851562 c 0
 294.8828125 365.915039062 291.228515625 357.142578125 288.095703125 297.619140625 c 0
 284.962890625 238.095703125 281.307617188 229.323242188 258.333007812 226.190429688 c 0
 235.359375 223.057617188 231.704101562 214.286132812 228.571289062 154.76171875 c 0
 225.438476562 95.23828125 221.783203125 86.4658203125 198.809570312 83.3330078125 c 0
 175.580078125 80.166015625 172.21484375 72.0234375 169.047851562 11.3095703125 c 2
 165.4765625 -57.142578125 l 1
 105.952148438 -57.142578125 l 1
 46.4287109375 -57.142578125 l 1
 50 11.3095703125 l 2
 53.16796875 72.0234375 56.5322265625 80.166015625 79.76171875 83.3330078125 c 0
 102.736328125 86.4658203125 106.390625 95.23828125 109.5234375 154.76171875 c 0
 112.65625 214.286132812 116.311523438 223.057617188 139.286132812 226.190429688 c 0
 162.259765625 229.323242188 165.915039062 238.095703125 169.047851562 297.619140625 c 0
 172.180664062 357.142578125 175.834960938 365.915039062 198.809570312 369.047851562 c 0
 221.783203125 372.180664062 225.438476562 380.952148438 228.571289062 440.4765625 c 0
 231.704101562 500 235.432617188 508.771484375 258.928710938 511.904296875 c 0
 283.010742188 515.116210938 285.713867188 522.0234375 285.713867188 580.357421875 c 2
EndSplineSet
Validated: 1
EndChar

StartChar: n
Encoding: 110 110 20
Width: 500
Flags: HW
LayerCount: 2
Fore
SplineSet
47.619140625 263.690429688 m 1
 47.619140625 514.286132812 l 1
 196.428710938 514.286132812 l 1
 345.23828125 514.286132812 l 1
 345.23828125 479.166992188 l 2
 345.23828125 451.786132812 351.139648438 443.260742188 372.0234375 440.4765625 c 0
 398.65625 436.924804688 398.809570312 435.713867188 398.809570312 228.571289062 c 2
 398.809570312 20.23828125 l 1
 342.26171875 16.6669921875 l 1
 285.713867188 13.095703125 l 1
 285.713867188 227.9765625 l 1
 285.713867188 442.857421875 l 1
 226.190429688 442.857421875 l 1
 166.666992188 442.857421875 l 1
 163.690429688 231.547851562 l 1
 160.713867188 20.23828125 l 1
 104.166992188 16.6669921875 l 1
 47.619140625 13.095703125 l 1
 47.619140625 263.690429688 l 1
EndSplineSet
Validated: 1
EndChar

StartChar: u
Encoding: 117 117 21
Width: 500
Flags: HW
LayerCount: 2
Fore
SplineSet
59.5234375 300 m 1
 59.5234375 514.286132812 l 1
 119.047851562 514.286132812 l 1
 178.571289062 514.286132812 l 1
 178.571289062 300 l 1
 178.571289062 85.7138671875 l 1
 238.095703125 85.7138671875 l 1
 297.619140625 85.7138671875 l 1
 297.619140625 300 l 1
 297.619140625 514.286132812 l 1
 357.142578125 514.286132812 l 1
 416.666992188 514.286132812 l 1
 413.690429688 267.26171875 l 1
 410.713867188 20.23828125 l 1
 264.880859375 16.6669921875 l 1
 119.047851562 13.095703125 l 1
 119.047851562 49.404296875 l 2
 119.047851562 80.357421875 114.65625 85.7138671875 89.2861328125 85.7138671875 c 2
 59.5234375 85.7138671875 l 1
 59.5234375 300 l 1
EndSplineSet
Validated: 1
EndChar

StartChar: m
Encoding: 109 109 22
Width: 500
Flags: HW
LayerCount: 2
Fore
SplineSet
35.7138671875 264.286132812 m 1
 35.7138671875 514.286132812 l 1
 214.286132812 514.286132812 l 1
 392.857421875 514.286132812 l 1
 392.857421875 478.571289062 l 2
 392.857421875 448.809570312 397.817382812 442.857421875 422.619140625 442.857421875 c 2
 452.380859375 442.857421875 l 1
 449.404296875 231.547851562 l 1
 446.428710938 20.23828125 l 1
 389.880859375 16.6669921875 l 1
 333.333007812 13.095703125 l 1
 333.333007812 227.9765625 l 1
 333.333007812 442.857421875 l 1
 303.571289062 442.857421875 l 1
 273.809570312 442.857421875 l 1
 273.809570312 264.286132812 l 1
 273.809570312 85.7138671875 l 1
 244.047851562 85.7138671875 l 1
 214.286132812 85.7138671875 l 1
 214.286132812 264.286132812 l 1
 214.286132812 442.857421875 l 1
 184.5234375 442.857421875 l 1
 154.76171875 442.857421875 l 1
 154.76171875 228.571289062 l 1
 154.76171875 14.2861328125 l 1
 95.23828125 14.2861328125 l 1
 35.7138671875 14.2861328125 l 1
 35.7138671875 264.286132812 l 1
EndSplineSet
Validated: 1
EndChar

StartChar: b
Encoding: 98 98 23
Width: 500
Flags: HW
LayerCount: 2
Fore
SplineSet
59.5234375 335.119140625 m 1
 59.5234375 657.142578125 l 1
 119.047851562 657.142578125 l 1
 178.571289062 657.142578125 l 1
 178.571289062 585.713867188 l 1
 178.571289062 514.286132812 l 1
 267.857421875 514.286132812 l 1
 357.142578125 514.286132812 l 1
 357.142578125 478.571289062 l 2
 357.142578125 448.809570312 362.202148438 442.857421875 387.5 442.857421875 c 2
 417.857421875 442.857421875 l 1
 414.286132812 267.26171875 l 2
 410.823242188 97.0234375 409.915039062 91.5576171875 384.5234375 88.095703125 c 0
 366.09375 85.58203125 357.275390625 75 354.76171875 52.380859375 c 2
 351.190429688 20.23828125 l 1
 205.357421875 16.6669921875 l 1
 59.5234375 13.095703125 l 1
 59.5234375 335.119140625 l 1
295.23828125 267.26171875 m 1
 298.809570312 442.857421875 l 1
 238.690429688 442.857421875 l 1
 178.571289062 442.857421875 l 1
 178.571289062 263.690429688 l 1
 178.571289062 84.5234375 l 1
 235.119140625 88.095703125 l 1
 291.666992188 91.6669921875 l 1
 295.23828125 267.26171875 l 1
EndSplineSet
Validated: 1
EndChar

StartChar: e
Encoding: 101 101 24
Width: 500
Flags: HW
LayerCount: 2
Fore
SplineSet
119.047851562 478.571289062 m 2
 119.047851562 514.286132812 l 1
 238.095703125 514.286132812 l 1
 357.142578125 514.286132812 l 1
 357.142578125 478.571289062 l 2
 357.142578125 448.809570312 362.103515625 442.857421875 386.904296875 442.857421875 c 0
 416.3359375 442.857421875 416.666992188 441.666992188 416.666992188 335.713867188 c 2
 416.666992188 228.571289062 l 1
 297.619140625 228.571289062 l 1
 178.571289062 228.571289062 l 1
 178.571289062 157.142578125 l 1
 178.571289062 85.7138671875 l 1
 268.452148438 85.7138671875 l 1
 358.333007812 85.7138671875 l 1
 354.76171875 52.9765625 l 1
 351.190429688 20.23828125 l 1
 235.119140625 16.6669921875 l 1
 119.047851562 13.095703125 l 1
 119.047851562 49.404296875 l 2
 119.047851562 80.357421875 114.65625 85.7138671875 89.2861328125 85.7138671875 c 2
 59.5234375 85.7138671875 l 1
 59.5234375 264.286132812 l 1
 59.5234375 442.857421875 l 1
 89.2861328125 442.857421875 l 2
 114.086914062 442.857421875 119.047851562 448.809570312 119.047851562 478.571289062 c 2
297.619140625 371.428710938 m 1
 297.619140625 442.857421875 l 1
 238.095703125 442.857421875 l 1
 178.571289062 442.857421875 l 1
 178.571289062 371.428710938 l 1
 178.571289062 300 l 1
 238.095703125 300 l 1
 297.619140625 300 l 1
 297.619140625 371.428710938 l 1
EndSplineSet
Validated: 1
EndChar

StartChar: r
Encoding: 114 114 25
Width: 500
Flags: HW
LayerCount: 2
Fore
SplineSet
59.5234375 263.690429688 m 1
 59.5234375 514.286132812 l 1
 119.047851562 514.286132812 l 1
 178.571289062 514.286132812 l 1
 178.571289062 442.26171875 l 2
 178.571289062 374.404296875 180.12109375 370.444335938 205.357421875 373.809570312 c 0
 224.837890625 376.407226562 233.1171875 386.309570312 235.713867188 410.119140625 c 0
 238.571289062 436.309570312 245.119140625 442.857421875 268.452148438 442.857421875 c 0
 292.7578125 442.857421875 297.619140625 448.809570312 297.619140625 478.571289062 c 0
 297.619140625 513.571289062 298.809570312 514.286132812 357.142578125 514.286132812 c 2
 416.666992188 514.286132812 l 1
 416.666992188 442.857421875 l 1
 416.666992188 371.428710938 l 1
 323.809570312 371.428710938 l 1
 230.952148438 371.428710938 l 1
 231.547851562 338.690429688 l 2
 232.001953125 313.690429688 225.952148438 305.108398438 205.952148438 302.380859375 c 0
 180.880859375 298.961914062 179.609375 292.857421875 176.190429688 159.5234375 c 2
 172.619140625 20.23828125 l 1
 116.071289062 16.6669921875 l 1
 59.5234375 13.095703125 l 1
 59.5234375 263.690429688 l 1
EndSplineSet
Validated: 33
EndChar

StartChar: s
Encoding: 115 115 26
Width: 500
Flags: HW
LayerCount: 2
Fore
SplineSet
119.047851562 479.166992188 m 2
 119.047851562 514.286132812 l 1
 267.857421875 514.286132812 l 1
 416.666992188 514.286132812 l 1
 416.666992188 478.571289062 l 1
 416.666992188 442.857421875 l 1
 297.0234375 442.857421875 l 1
 177.380859375 442.857421875 l 1
 180.952148438 374.404296875 l 1
 184.5234375 305.952148438 l 1
 270.23828125 302.380859375 l 2
 353.571289062 298.909179688 356.051757812 297.916992188 359.5234375 266.666992188 c 0
 362.037109375 244.047851562 371.032226562 233.465820312 389.880859375 230.952148438 c 0
 414.190429688 227.7109375 416.666992188 220.833007812 416.666992188 156.547851562 c 0
 416.666992188 88.6904296875 415.416015625 85.7138671875 386.904296875 85.7138671875 c 0
 362.103515625 85.7138671875 357.142578125 79.76171875 357.142578125 50 c 2
 357.142578125 14.2861328125 l 1
 214.880859375 14.2861328125 l 2
 82.73828125 14.2861328125 72.0830078125 15.9794921875 65.0791015625 38.095703125 c 0
 52.134765625 78.9716796875 69.0478515625 85.7138671875 184.5234375 85.7138671875 c 2
 297.619140625 85.7138671875 l 1
 297.619140625 156.547851562 l 1
 297.619140625 227.380859375 l 1
 211.309570312 230.952148438 l 2
 144.642578125 233.7109375 124.59375 238.587890625 123.213867188 252.380859375 c 0
 122.26171875 261.904296875 120.873046875 276.904296875 120.23828125 284.5234375 c 0
 119.603515625 292.142578125 106.547851562 300.4765625 92.26171875 302.380859375 c 0
 68.3984375 305.5625 65.4765625 313.095703125 65.4765625 371.428710938 c 0
 65.4765625 429.76171875 68.3984375 437.293945312 92.26171875 440.4765625 c 0
 113.145507812 443.260742188 119.047851562 451.786132812 119.047851562 479.166992188 c 2
EndSplineSet
Validated: 33
EndChar

StartChar: i
Encoding: 105 105 27
Width: 500
Flags: HW
LayerCount: 2
Fore
SplineSet
59.5234375 478.571289062 m 2
 59.5234375 514.286132812 l 1
 178.571289062 514.286132812 l 1
 297.619140625 514.286132812 l 1
 297.619140625 300 l 1
 297.619140625 85.7138671875 l 1
 357.73828125 85.7138671875 l 2
 416.071289062 85.7138671875 417.750976562 84.7421875 414.286132812 52.9765625 c 2
 410.713867188 20.23828125 l 1
 235.119140625 16.6669921875 l 1
 59.5234375 13.095703125 l 1
 59.5234375 49.404296875 l 2
 59.5234375 84.98828125 60.7138671875 85.7138671875 119.047851562 85.7138671875 c 2
 178.571289062 85.7138671875 l 1
 178.571289062 264.286132812 l 1
 178.571289062 442.857421875 l 1
 119.047851562 442.857421875 l 2
 60.7138671875 442.857421875 59.5234375 443.571289062 59.5234375 478.571289062 c 2
178.571289062 657.142578125 m 1
 178.571289062 728.571289062 l 1
 238.095703125 728.571289062 l 1
 297.619140625 728.571289062 l 1
 297.619140625 657.142578125 l 1
 297.619140625 585.713867188 l 1
 238.095703125 585.713867188 l 1
 178.571289062 585.713867188 l 1
 178.571289062 657.142578125 l 1
EndSplineSet
Validated: 33
EndChar

StartChar: g
Encoding: 103 103 28
Width: 500
Flags: HW
LayerCount: 2
Fore
SplineSet
107.142578125 478.571289062 m 2
 107.142578125 514.286132812 l 1
 255.952148438 514.286132812 l 1
 404.76171875 514.286132812 l 1
 401.786132812 195.833007812 l 2
 398.892578125 -113.690429688 398.141601562 -122.619140625 375 -122.619140625 c 0
 357.68359375 -122.619140625 350.216796875 -131.547851562 347.619140625 -155.357421875 c 2
 344.047851562 -188.095703125 l 1
 195.833007812 -188.095703125 l 1
 47.619140625 -188.095703125 l 1
 47.619140625 -158.333007812 l 1
 47.619140625 -128.571289062 l 1
 166.666992188 -128.571289062 l 1
 285.713867188 -128.571289062 l 1
 285.713867188 -57.73828125 l 1
 285.713867188 13.095703125 l 1
 199.404296875 16.6669921875 l 2
 116.071289062 20.115234375 112.971679688 21.3466796875 109.5234375 52.380859375 c 0
 107.010742188 75 98.1923828125 85.58203125 79.76171875 88.095703125 c 0
 54.3701171875 91.5576171875 53.462890625 97.0234375 50 267.26171875 c 2
 46.4287109375 442.857421875 l 1
 76.7861328125 442.857421875 l 2
 102.083007812 442.857421875 107.142578125 448.809570312 107.142578125 478.571289062 c 2
285.713867188 263.690429688 m 1
 285.713867188 442.857421875 l 1
 225.595703125 442.857421875 l 1
 165.4765625 442.857421875 l 1
 169.047851562 267.26171875 l 1
 172.619140625 91.6669921875 l 1
 229.166992188 88.095703125 l 1
 285.713867188 84.5234375 l 1
 285.713867188 263.690429688 l 1
EndSplineSet
Validated: 1
EndChar

StartChar: at
Encoding: 64 64 29
Width: 500
Flags: HW
LayerCount: 2
Fore
SplineSet
71.4287109375 616.071289062 m 2
 71.4287109375 645.23828125 l 1
 249.404296875 645.23828125 l 1
 427.380859375 645.23828125 l 1
 430.952148438 612.5 l 2
 433.549804688 588.690429688 441.829101562 578.788085938 461.309570312 576.190429688 c 0
 487.865234375 572.649414062 488.095703125 570.833007812 488.095703125 364.880859375 c 2
 488.095703125 157.142578125 l 1
 369.642578125 157.142578125 l 1
 251.190429688 157.142578125 l 1
 247.619140625 189.880859375 l 2
 245.021484375 213.690429688 236.7421875 223.592773438 217.26171875 226.190429688 c 0
 192.952148438 229.431640625 190.4765625 236.309570312 190.4765625 300.595703125 c 0
 190.4765625 368.452148438 191.7265625 371.428710938 220.23828125 371.428710938 c 0
 245.040039062 371.428710938 250 377.380859375 250 407.142578125 c 0
 250 442.142578125 251.190429688 442.857421875 309.5234375 442.857421875 c 2
 369.047851562 442.857421875 l 1
 369.047851562 508.333007812 l 1
 369.047851562 573.809570312 l 1
 250 573.809570312 l 1
 130.952148438 573.809570312 l 1
 130.952148438 330.357421875 l 1
 130.952148438 86.904296875 l 1
 306.547851562 83.3330078125 l 1
 482.142578125 79.76171875 l 1
 485.713867188 47.0234375 l 1
 489.286132812 14.2861328125 l 1
 280.357421875 14.2861328125 l 1
 71.4287109375 14.2861328125 l 1
 71.4287109375 50 l 2
 71.4287109375 79.76171875 66.4677734375 85.7138671875 41.6669921875 85.7138671875 c 2
 11.904296875 85.7138671875 l 1
 14.880859375 332.73828125 l 2
 17.849609375 579.166992188 17.921875 579.770507812 44.642578125 583.333007812 c 0
 64.322265625 585.95703125 71.4287109375 594.642578125 71.4287109375 616.071289062 c 2
366.666992188 297.0234375 m 0
 363.499023438 357.73828125 360.067382812 365.879882812 336.309570312 369.047851562 c 0
 311.073242188 372.412109375 309.5234375 368.452148438 309.5234375 300.595703125 c 0
 309.5234375 231.547851562 310.778320312 228.571289062 339.880859375 228.571289062 c 0
 369.446289062 228.571289062 370.14453125 230.357421875 366.666992188 297.0234375 c 0
EndSplineSet
Validated: 33
EndChar

StartChar: exclam
Encoding: 33 33 30
Width: 500
Flags: HW
LayerCount: 2
Fore
SplineSet
154.76171875 85.7138671875 m 1
 154.76171875 157.142578125 l 1
 214.286132812 157.142578125 l 1
 273.809570312 157.142578125 l 1
 273.809570312 85.7138671875 l 1
 273.809570312 14.2861328125 l 1
 214.286132812 14.2861328125 l 1
 154.76171875 14.2861328125 l 1
 154.76171875 85.7138671875 l 1
154.76171875 615.4765625 m 0
 154.76171875 643.133789062 158.928710938 645.23828125 213.690429688 645.23828125 c 0
 269.642578125 645.23828125 272.799804688 643.584960938 276.190429688 612.5 c 0
 278.788085938 588.690429688 286.255859375 579.76171875 303.571289062 579.76171875 c 0
 325.33984375 579.76171875 327.6875 570.833007812 330.952148438 475.595703125 c 2
 334.5234375 371.428710938 l 1
 304.166992188 371.428710938 l 2
 274.821289062 371.428710938 273.809570312 369.047851562 273.809570312 300 c 2
 273.809570312 228.571289062 l 1
 214.286132812 228.571289062 l 1
 154.76171875 228.571289062 l 1
 154.76171875 300 l 2
 154.76171875 367.857421875 153.2734375 371.428710938 125 371.428710938 c 0
 95.568359375 371.428710938 95.23828125 372.619140625 95.23828125 478.571289062 c 0
 95.23828125 584.5234375 95.568359375 585.713867188 125 585.713867188 c 0
 148.809570312 585.713867188 154.76171875 591.666992188 154.76171875 615.4765625 c 0
EndSplineSet
Validated: 1
EndChar

StartChar: asciitilde
Encoding: 126 126 31
Width: 500
Flags: HW
LayerCount: 2
Fore
SplineSet
71.5234375 616.071289062 m 0
 71.5234375 644.459960938 73.904296875 645.23828125 160.809570312 645.23828125 c 0
 247.713867188 645.23828125 250.095703125 644.444335938 250.095703125 615.4765625 c 0
 250.095703125 598.809570312 255.333007812 585.190429688 262 584.5234375 c 0
 268.666992188 583.857421875 280.452148438 582.547851562 288.786132812 581.547851562 c 0
 296.90234375 580.573242188 305.290039062 564.880859375 307.23828125 547.0234375 c 0
 309.965820312 522.0234375 317.5625 514.286132812 339.380859375 514.286132812 c 0
 361.19921875 514.286132812 368.796875 522.0234375 371.5234375 547.0234375 c 0
 374.250976562 572.0234375 381.426757812 579.48046875 401.880859375 578.571289062 c 0
 423.497070312 577.610351562 428.666992188 583.928710938 428.666992188 611.309570312 c 0
 428.666992188 639.880859375 433.459960938 645.23828125 459.0234375 645.23828125 c 0
 488.588867188 645.23828125 489.288085938 643.452148438 485.809570312 576.786132812 c 0
 482.517578125 513.690429688 480.141601562 508.61328125 455.452148438 511.904296875 c 0
 432.619140625 514.94921875 428.666992188 510.119140625 428.666992188 479.166992188 c 2
 428.666992188 442.857421875 l 1
 339.380859375 442.857421875 l 1
 250.095703125 442.857421875 l 1
 250.095703125 479.166992188 l 2
 250.095703125 499.404296875 245.352539062 512.536132812 239.380859375 508.833007812 c 0
 218.462890625 495.864257812 190.571289062 516.666992188 190.571289062 545.23828125 c 0
 190.571289062 568.095703125 184.619140625 573.809570312 160.809570312 573.809570312 c 0
 135.747070312 573.809570312 131.047851562 568.452148438 131.047851562 539.880859375 c 0
 131.047851562 512.5 125.87890625 506.181640625 104.26171875 507.142578125 c 0
 83.8076171875 508.051757812 76.6318359375 500.595703125 73.904296875 475.595703125 c 0
 71.0478515625 449.404296875 64.380859375 442.857421875 40.5712890625 442.857421875 c 0
 12.103515625 442.857421875 10.96484375 445.833007812 14.380859375 511.309570312 c 0
 17.548828125 572.0234375 20.98046875 580.166015625 44.73828125 583.333007812 c 0
 64.4169921875 585.95703125 71.5234375 594.642578125 71.5234375 616.071289062 c 0
EndSplineSet
Validated: 33
EndChar

StartChar: period
Encoding: 46 46 32
Width: 500
Flags: HW
LayerCount: 2
Fore
SplineSet
142.857421875 86.3095703125 m 1
 142.857421875 158.333007812 l 1
 229.166992188 154.76171875 l 1
 315.4765625 151.190429688 l 1
 319.047851562 82.73828125 l 1
 322.619140625 14.2861328125 l 1
 232.73828125 14.2861328125 l 1
 142.857421875 14.2861328125 l 1
 142.857421875 86.3095703125 l 1
EndSplineSet
Validated: 1
EndChar

StartChar: comma
Encoding: 44 44 33
Width: 500
Flags: HW
LayerCount: 2
Fore
SplineSet
130.952148438 85.7138671875 m 2
 130.952148438 157.142578125 l 1
 220.23828125 157.142578125 l 1
 309.5234375 157.142578125 l 1
 309.5234375 50 l 2
 309.5234375 -55.9521484375 309.193359375 -57.142578125 279.76171875 -57.142578125 c 0
 254.959960938 -57.142578125 250 -63.095703125 250 -92.857421875 c 0
 250 -127.857421875 248.809570312 -128.571289062 190.4765625 -128.571289062 c 0
 132.142578125 -128.571289062 130.952148438 -127.857421875 130.952148438 -92.857421875 c 0
 130.952148438 -63.095703125 135.913085938 -57.142578125 160.713867188 -57.142578125 c 0
 185.515625 -57.142578125 190.4765625 -51.1904296875 190.4765625 -21.4287109375 c 0
 190.4765625 8.3330078125 185.515625 14.2861328125 160.713867188 14.2861328125 c 0
 132.440429688 14.2861328125 130.952148438 17.857421875 130.952148438 85.7138671875 c 2
EndSplineSet
Validated: 1
EndChar

StartChar: quotesingle
Encoding: 39 39 34
Width: 500
Flags: HW
LayerCount: 2
Fore
SplineSet
154.76171875 544.047851562 m 1
 154.76171875 645.23828125 l 1
 214.286132812 645.23828125 l 1
 273.809570312 645.23828125 l 1
 273.809570312 544.047851562 l 1
 273.809570312 442.857421875 l 1
 214.286132812 442.857421875 l 1
 154.76171875 442.857421875 l 1
 154.76171875 544.047851562 l 1
EndSplineSet
Validated: 1
EndChar

StartChar: d
Encoding: 100 100 35
Width: 500
Flags: HW
LayerCount: 2
Fore
SplineSet
297.619140625 585.713867188 m 1
 297.619140625 657.142578125 l 1
 357.142578125 657.142578125 l 1
 416.666992188 657.142578125 l 1
 416.666992188 335.119140625 l 1
 416.666992188 13.095703125 l 1
 270.833007812 16.6669921875 l 1
 125 20.23828125 l 1
 121.428710938 52.380859375 l 2
 118.915039062 75 110.096679688 85.58203125 91.6669921875 88.095703125 c 0
 66.275390625 91.5576171875 65.3671875 97.0234375 61.904296875 267.26171875 c 2
 58.3330078125 442.857421875 l 1
 88.6904296875 442.857421875 l 2
 113.98828125 442.857421875 119.047851562 448.809570312 119.047851562 478.571289062 c 2
 119.047851562 514.286132812 l 1
 208.333007812 514.286132812 l 1
 297.619140625 514.286132812 l 1
 297.619140625 585.713867188 l 1
297.619140625 264.286132812 m 1
 297.619140625 442.857421875 l 1
 238.095703125 442.857421875 l 1
 178.571289062 442.857421875 l 1
 178.571289062 264.286132812 l 1
 178.571289062 85.7138671875 l 1
 238.095703125 85.7138671875 l 1
 297.619140625 85.7138671875 l 1
 297.619140625 264.286132812 l 1
EndSplineSet
Validated: 1
EndChar

StartChar: a
Encoding: 97 97 36
Width: 500
Flags: HW
LayerCount: 2
Fore
SplineSet
107.142578125 478.571289062 m 1
 107.142578125 514.286132812 l 1
 226.190429688 514.286132812 l 1
 345.23828125 514.286132812 l 1
 345.23828125 478.571289062 l 2
 345.23828125 448.809570312 350.198242188 442.857421875 375 442.857421875 c 2
 404.76171875 442.857421875 l 1
 401.786132812 231.547851562 l 1
 398.809570312 20.23828125 l 1
 252.9765625 16.6669921875 l 1
 107.142578125 13.095703125 l 1
 107.142578125 49.404296875 l 2
 107.142578125 80.357421875 102.751953125 85.7138671875 77.380859375 85.7138671875 c 0
 49.107421875 85.7138671875 47.619140625 89.2861328125 47.619140625 157.142578125 c 0
 47.619140625 225 49.107421875 228.571289062 77.380859375 228.571289062 c 0
 102.182617188 228.571289062 107.142578125 234.5234375 107.142578125 264.286132812 c 2
 107.142578125 300 l 1
 196.428710938 300 l 1
 285.713867188 300 l 1
 285.713867188 371.428710938 l 1
 285.713867188 442.857421875 l 1
 196.428710938 442.857421875 l 1
 107.142578125 442.857421875 l 1
 107.142578125 478.571289062 l 1
285.713867188 157.142578125 m 1
 285.713867188 228.571289062 l 1
 226.190429688 228.571289062 l 1
 166.666992188 228.571289062 l 1
 166.666992188 157.142578125 l 1
 166.666992188 85.7138671875 l 1
 226.190429688 85.7138671875 l 1
 285.713867188 85.7138671875 l 1
 285.713867188 157.142578125 l 1
EndSplineSet
Validated: 1
EndChar

StartChar: f
Encoding: 102 102 37
Width: 500
Flags: HW
LayerCount: 2
Fore
SplineSet
190.4765625 621.428710938 m 2
 190.4765625 657.142578125 l 1
 310.119140625 657.142578125 l 1
 429.76171875 657.142578125 l 1
 426.190429688 624.404296875 l 2
 422.693359375 592.34375 420.833007812 591.592773438 336.309570312 588.095703125 c 2
 250 584.5234375 l 1
 250 477.9765625 l 1
 250 371.428710938 l 1
 339.880859375 371.428710938 l 1
 429.76171875 371.428710938 l 1
 426.190429688 338.690429688 l 2
 422.717773438 306.861328125 420.23828125 305.853515625 336.904296875 302.380859375 c 2
 251.190429688 298.809570312 l 1
 247.619140625 159.5234375 l 1
 244.047851562 20.23828125 l 1
 187.5 16.6669921875 l 1
 130.952148438 13.095703125 l 1
 130.952148438 156.547851562 l 1
 130.952148438 300 l 1
 101.190429688 300 l 2
 76.388671875 300 71.4287109375 305.952148438 71.4287109375 335.713867188 c 0
 71.4287109375 365.4765625 76.388671875 371.428710938 101.190429688 371.428710938 c 0
 130.622070312 371.428710938 130.952148438 372.619140625 130.952148438 478.571289062 c 0
 130.952148438 584.5234375 131.283203125 585.713867188 160.713867188 585.713867188 c 0
 185.515625 585.713867188 190.4765625 591.666992188 190.4765625 621.428710938 c 2
EndSplineSet
Validated: 1
EndChar

StartChar: semicolon
Encoding: 59 59 38
Width: 500
Flags: HW
LayerCount: 2
Fore
SplineSet
138.690429688 149.404296875 m 0
 142.983398438 153.697265625 182.73828125 157.142578125 227.9765625 157.142578125 c 2
 309.5234375 157.142578125 l 1
 309.5234375 50 l 2
 309.5234375 -55.9521484375 309.193359375 -57.142578125 279.76171875 -57.142578125 c 0
 254.959960938 -57.142578125 250 -63.095703125 250 -92.857421875 c 0
 250 -127.857421875 248.809570312 -128.571289062 190.4765625 -128.571289062 c 0
 132.142578125 -128.571289062 130.952148438 -127.857421875 130.952148438 -92.857421875 c 0
 130.952148438 -63.095703125 135.913085938 -57.142578125 160.713867188 -57.142578125 c 0
 185.515625 -57.142578125 190.4765625 -51.1904296875 190.4765625 -21.4287109375 c 0
 190.4765625 8.3330078125 185.515625 14.2861328125 160.713867188 14.2861328125 c 0
 132.899414062 14.2861328125 130.952148438 18.4521484375 130.952148438 77.9765625 c 0
 130.952148438 112.5 134.49609375 145.209960938 138.690429688 149.404296875 c 0
138.690429688 506.547851562 m 0
 142.983398438 510.83984375 182.73828125 514.286132812 227.9765625 514.286132812 c 2
 309.5234375 514.286132812 l 1
 309.5234375 442.857421875 l 1
 309.5234375 371.428710938 l 1
 220.23828125 371.428710938 l 1
 130.952148438 371.428710938 l 1
 130.952148438 435.119140625 l 2
 130.952148438 469.642578125 134.49609375 502.353515625 138.690429688 506.547851562 c 0
EndSplineSet
Validated: 1
EndChar

StartChar: backslash
Encoding: 92 92 39
Width: 500
Flags: HW
LayerCount: 2
Fore
SplineSet
61.904296875 576.786132812 m 2
 58.3330078125 645.23828125 l 1
 118.452148438 645.23828125 l 1
 178.571289062 645.23828125 l 1
 178.571289062 580.357421875 l 2
 178.571289062 522.0234375 181.274414062 515.116210938 205.357421875 511.904296875 c 0
 228.853515625 508.771484375 232.581054688 500 235.713867188 440.4765625 c 0
 238.846679688 380.952148438 242.501953125 372.180664062 265.4765625 369.047851562 c 0
 288.450195312 365.915039062 292.10546875 357.142578125 295.23828125 297.619140625 c 0
 298.37109375 238.095703125 302.026367188 229.323242188 325 226.190429688 c 0
 347.973632812 223.057617188 351.62890625 214.286132812 354.76171875 154.76171875 c 0
 357.89453125 95.23828125 361.549804688 86.4658203125 384.5234375 83.3330078125 c 0
 407.75390625 80.166015625 411.118164062 72.0234375 414.286132812 11.3095703125 c 2
 417.857421875 -57.142578125 l 1
 358.333007812 -57.142578125 l 1
 298.809570312 -57.142578125 l 1
 295.23828125 11.3095703125 l 2
 292.0703125 72.0234375 288.706054688 80.166015625 265.4765625 83.3330078125 c 0
 242.501953125 86.4658203125 238.846679688 95.23828125 235.713867188 154.76171875 c 0
 232.581054688 214.286132812 228.926757812 223.057617188 205.952148438 226.190429688 c 0
 182.978515625 229.323242188 179.323242188 238.095703125 176.190429688 297.619140625 c 0
 173.057617188 357.142578125 169.40234375 365.915039062 146.428710938 369.047851562 c 0
 123.454101562 372.180664062 119.799804688 380.952148438 116.666992188 440.4765625 c 0
 113.596679688 498.809570312 109.75390625 508.333007812 89.2861328125 508.333007812 c 0
 68.58203125 508.333007812 65.0107421875 517.26171875 61.904296875 576.786132812 c 2
EndSplineSet
Validated: 1
EndChar

StartChar: c
Encoding: 99 99 40
Width: 500
Flags: HW
LayerCount: 2
Fore
SplineSet
119.047851562 478.571289062 m 2
 119.047851562 514.286132812 l 1
 238.095703125 514.286132812 l 1
 357.142578125 514.286132812 l 1
 357.142578125 478.571289062 l 2
 357.142578125 448.809570312 362.103515625 442.857421875 386.904296875 442.857421875 c 0
 411.706054688 442.857421875 416.666992188 436.904296875 416.666992188 407.142578125 c 0
 416.666992188 372.142578125 415.4765625 371.428710938 357.142578125 371.428710938 c 0
 298.809570312 371.428710938 297.619140625 372.142578125 297.619140625 407.142578125 c 0
 297.619140625 441.795898438 295.833007812 442.857421875 237.5 442.857421875 c 2
 177.380859375 442.857421875 l 1
 180.952148438 267.26171875 l 1
 184.5234375 91.6669921875 l 1
 241.071289062 88.095703125 l 2
 297.0234375 84.5615234375 297.619140625 84.90625 297.619140625 120.833007812 c 0
 297.619140625 156.416992188 298.809570312 157.142578125 357.142578125 157.142578125 c 0
 415.4765625 157.142578125 416.666992188 156.428710938 416.666992188 121.428710938 c 0
 416.666992188 91.6669921875 411.706054688 85.7138671875 386.904296875 85.7138671875 c 0
 361.534179688 85.7138671875 357.142578125 80.357421875 357.142578125 49.404296875 c 2
 357.142578125 13.095703125 l 1
 241.071289062 16.6669921875 l 1
 125 20.23828125 l 1
 121.428710938 52.380859375 l 2
 118.915039062 75 110.096679688 85.58203125 91.6669921875 88.095703125 c 0
 66.275390625 91.5576171875 65.3671875 97.0234375 61.904296875 267.26171875 c 2
 58.3330078125 442.857421875 l 1
 88.6904296875 442.857421875 l 2
 113.98828125 442.857421875 119.047851562 448.809570312 119.047851562 478.571289062 c 2
EndSplineSet
Validated: 33
EndChar

StartChar: k
Encoding: 107 107 41
Width: 500
Flags: HW
LayerCount: 2
Fore
SplineSet
62.5 338.690429688 m 1
 59.5234375 657.142578125 l 1
 118.452148438 657.142578125 l 1
 177.380859375 657.142578125 l 1
 180.952148438 481.547851562 l 2
 184.439453125 310.119140625 185.159179688 305.8671875 211.309570312 302.380859375 c 0
 234.143554688 299.336914062 238.095703125 304.166992188 238.095703125 335.119140625 c 0
 238.095703125 366.071289062 242.486328125 371.428710938 267.857421875 371.428710938 c 0
 296.130859375 371.428710938 297.619140625 375 297.619140625 442.857421875 c 2
 297.619140625 514.286132812 l 1
 357.142578125 514.286132812 l 1
 416.666992188 514.286132812 l 1
 416.666992188 442.857421875 l 2
 416.666992188 375 415.178710938 371.428710938 386.904296875 371.428710938 c 0
 362.103515625 371.428710938 357.142578125 365.4765625 357.142578125 335.713867188 c 0
 357.142578125 304.76171875 353.095703125 300 326.786132812 300 c 0
 300.291992188 300 296.8828125 295.833007812 300 267.26171875 c 0
 302.467773438 244.642578125 311.666992188 233.419921875 329.76171875 230.952148438 c 0
 348.192382812 228.439453125 357.010742188 217.857421875 359.5234375 195.23828125 c 0
 362.037109375 172.619140625 371.032226562 162.037109375 389.880859375 159.5234375 c 0
 414.434570312 156.25 416.666992188 150 416.666992188 84.5234375 c 2
 416.666992188 13.095703125 l 1
 360.119140625 16.6669921875 l 1
 303.571289062 20.23828125 l 1
 300 88.095703125 l 2
 296.8671875 147.619140625 293.211914062 156.390625 270.23828125 159.5234375 c 0
 252.142578125 161.991210938 242.943359375 173.213867188 240.4765625 195.833007812 c 0
 237.619140625 222.0234375 231.071289062 228.571289062 207.73828125 228.571289062 c 0
 179.0546875 228.571289062 178.571289062 226.786132812 178.571289062 120.833007812 c 2
 178.571289062 13.095703125 l 1
 122.0234375 16.6669921875 l 1
 65.4765625 20.23828125 l 1
 62.5 338.690429688 l 1
EndSplineSet
Validated: 33
EndChar

StartChar: l
Encoding: 108 108 42
Width: 500
Flags: HW
LayerCount: 2
Fore
SplineSet
59.5234375 621.428710938 m 2
 59.5234375 657.142578125 l 1
 178.571289062 657.142578125 l 1
 297.619140625 657.142578125 l 1
 297.619140625 371.428710938 l 1
 297.619140625 85.7138671875 l 1
 357.142578125 85.7138671875 l 2
 415.4765625 85.7138671875 416.666992188 84.98828125 416.666992188 49.404296875 c 2
 416.666992188 13.095703125 l 1
 241.071289062 16.6669921875 l 1
 65.4765625 20.23828125 l 1
 61.904296875 52.9765625 l 2
 58.439453125 84.7421875 60.119140625 85.7138671875 118.452148438 85.7138671875 c 2
 178.571289062 85.7138671875 l 1
 178.571289062 335.713867188 l 1
 178.571289062 585.713867188 l 1
 119.047851562 585.713867188 l 2
 60.7138671875 585.713867188 59.5234375 586.428710938 59.5234375 621.428710938 c 2
EndSplineSet
Validated: 33
EndChar

StartChar: bracketright
Encoding: 93 93 43
Width: 500
Flags: HW
LayerCount: 2
Fore
SplineSet
107.142578125 609.5234375 m 2
 107.142578125 645.23828125 l 1
 226.190429688 645.23828125 l 1
 345.23828125 645.23828125 l 1
 345.23828125 222.619140625 l 1
 345.23828125 -200 l 1
 226.190429688 -200 l 1
 107.142578125 -200 l 1
 107.142578125 -164.286132812 l 2
 107.142578125 -129.286132812 108.333007812 -128.571289062 166.666992188 -128.571289062 c 2
 226.190429688 -128.571289062 l 1
 226.190429688 222.619140625 l 1
 226.190429688 573.809570312 l 1
 166.666992188 573.809570312 l 2
 108.333007812 573.809570312 107.142578125 574.5234375 107.142578125 609.5234375 c 2
EndSplineSet
Validated: 1
EndChar

StartChar: bracketleft
Encoding: 91 91 44
Width: 500
Flags: HW
LayerCount: 2
Fore
SplineSet
130.952148438 222.619140625 m 1
 130.952148438 645.23828125 l 1
 250 645.23828125 l 1
 369.047851562 645.23828125 l 1
 369.047851562 609.5234375 l 2
 369.047851562 574.5234375 367.857421875 573.809570312 309.5234375 573.809570312 c 2
 250 573.809570312 l 1
 250 222.619140625 l 1
 250 -128.571289062 l 1
 309.5234375 -128.571289062 l 2
 367.857421875 -128.571289062 369.047851562 -129.286132812 369.047851562 -164.286132812 c 2
 369.047851562 -200 l 1
 250 -200 l 1
 130.952148438 -200 l 1
 130.952148438 222.619140625 l 1
EndSplineSet
Validated: 1
EndChar

StartChar: grave
Encoding: 96 96 45
Width: 500
Flags: HW
LayerCount: 2
Fore
SplineSet
109.5234375 755.357421875 m 2
 105.952148438 788.095703125 l 1
 195.23828125 788.095703125 l 1
 284.5234375 788.095703125 l 1
 288.095703125 719.642578125 l 2
 291.262695312 658.928710938 294.694335938 650.787109375 318.452148438 647.619140625 c 0
 338.98828125 644.880859375 345.23828125 635.713867188 345.23828125 608.333007812 c 0
 345.23828125 572.995117188 344.642578125 572.65625 288.690429688 576.190429688 c 0
 237.5 579.423828125 231.8046875 582.806640625 228.571289062 611.904296875 c 0
 226.05859375 634.5234375 217.240234375 645.10546875 198.809570312 647.619140625 c 0
 180.37890625 650.131835938 171.560546875 660.713867188 169.047851562 683.333007812 c 0
 166.534179688 705.952148438 157.715820312 716.534179688 139.286132812 719.047851562 c 0
 121.190429688 721.515625 111.991210938 732.73828125 109.5234375 755.357421875 c 2
EndSplineSet
Validated: 33
EndChar

StartChar: hyphen
Encoding: 45 45 46
Width: 500
Flags: HW
LayerCount: 2
Fore
SplineSet
47.619140625 336.309570312 m 1
 47.619140625 372.619140625 l 1
 223.213867188 369.047851562 l 1
 398.809570312 365.4765625 l 1
 402.380859375 332.73828125 l 1
 405.952148438 300 l 1
 226.786132812 300 l 1
 47.619140625 300 l 1
 47.619140625 336.309570312 l 1
EndSplineSet
Validated: 1
EndChar

StartChar: one
Encoding: 49 49 47
Width: 500
Flags: HW
LayerCount: 2
Fore
SplineSet
238.095703125 609.5234375 m 0
 238.095703125 644.5234375 239.286132812 645.23828125 297.619140625 645.23828125 c 2
 357.142578125 645.23828125 l 1
 357.142578125 323.809570312 l 1
 357.142578125 2.380859375 l 1
 297.619140625 2.380859375 l 1
 238.095703125 2.380859375 l 1
 238.095703125 216.666992188 l 1
 238.095703125 430.952148438 l 1
 148.809570312 430.952148438 l 1
 59.5234375 430.952148438 l 1
 59.5234375 466.666992188 l 2
 59.5234375 501.666992188 60.7138671875 502.380859375 119.047851562 502.380859375 c 0
 177.380859375 502.380859375 178.571289062 503.095703125 178.571289062 538.095703125 c 0
 178.571289062 567.857421875 183.532226562 573.809570312 208.333007812 573.809570312 c 0
 233.134765625 573.809570312 238.095703125 579.76171875 238.095703125 609.5234375 c 0
EndSplineSet
Validated: 1
EndChar

StartChar: two
Encoding: 50 50 48
Width: 500
Flags: HW
LayerCount: 2
Fore
SplineSet
119.047851562 610.119140625 m 2
 119.047851562 646.428710938 l 1
 235.119140625 642.857421875 l 1
 351.190429688 639.286132812 l 1
 354.76171875 607.142578125 l 2
 357.275390625 584.5234375 366.09375 573.94140625 384.5234375 571.428710938 c 0
 408.768554688 568.122070312 410.979492188 560.119140625 414.286132812 463.690429688 c 2
 417.857421875 359.5234375 l 1
 387.5 359.5234375 l 2
 362.202148438 359.5234375 357.142578125 353.571289062 357.142578125 323.809570312 c 0
 357.142578125 294.047851562 352.182617188 288.095703125 327.380859375 288.095703125 c 0
 302.579101562 288.095703125 297.619140625 282.142578125 297.619140625 252.380859375 c 0
 297.619140625 222.619140625 292.659179688 216.666992188 267.857421875 216.666992188 c 0
 243.055664062 216.666992188 238.095703125 210.713867188 238.095703125 180.952148438 c 0
 238.095703125 151.190429688 233.134765625 145.23828125 208.333007812 145.23828125 c 0
 183.532226562 145.23828125 178.571289062 139.286132812 178.571289062 109.5234375 c 2
 178.571289062 73.8095703125 l 1
 298.213867188 73.8095703125 l 1
 417.857421875 73.8095703125 l 1
 414.286132812 41.0712890625 l 1
 410.713867188 8.3330078125 l 1
 235.119140625 4.76171875 l 1
 59.5234375 1.1904296875 l 1
 59.5234375 73.2138671875 l 2
 59.5234375 142.26171875 60.75390625 145.23828125 89.2861328125 145.23828125 c 0
 114.086914062 145.23828125 119.047851562 151.190429688 119.047851562 180.952148438 c 0
 119.047851562 210.713867188 124.0078125 216.666992188 148.809570312 216.666992188 c 0
 173.611328125 216.666992188 178.571289062 222.619140625 178.571289062 252.380859375 c 0
 178.571289062 282.142578125 183.532226562 288.095703125 208.333007812 288.095703125 c 0
 233.134765625 288.095703125 238.095703125 294.047851562 238.095703125 323.809570312 c 0
 238.095703125 353.571289062 243.154296875 359.5234375 268.452148438 359.5234375 c 2
 298.809570312 359.5234375 l 1
 295.23828125 463.690429688 l 1
 291.666992188 567.857421875 l 1
 235.119140625 571.428710938 l 1
 178.571289062 575 l 1
 178.571289062 502.9765625 l 1
 178.571289062 430.952148438 l 1
 119.047851562 430.952148438 l 1
 59.5234375 430.952148438 l 1
 59.5234375 502.380859375 l 2
 59.5234375 570.23828125 61.01171875 573.809570312 89.2861328125 573.809570312 c 0
 114.65625 573.809570312 119.047851562 579.166992188 119.047851562 610.119140625 c 2
EndSplineSet
Validated: 1
EndChar

StartChar: three
Encoding: 51 51 49
Width: 500
Flags: HW
LayerCount: 2
Fore
SplineSet
114.880859375 637.5 m 0
 119.1015625 641.720703125 173.213867188 645.23828125 233.928710938 645.23828125 c 2
 345.23828125 645.23828125 l 1
 345.23828125 609.5234375 l 2
 345.23828125 579.76171875 350.198242188 573.809570312 375 573.809570312 c 0
 404.431640625 573.809570312 404.76171875 572.619140625 404.76171875 466.666992188 c 0
 404.76171875 360.713867188 404.431640625 359.5234375 375 359.5234375 c 0
 350.198242188 359.5234375 345.23828125 353.571289062 345.23828125 323.809570312 c 0
 345.23828125 294.047851562 350.198242188 288.095703125 375 288.095703125 c 0
 404.431640625 288.095703125 404.76171875 286.904296875 404.76171875 180.952148438 c 0
 404.76171875 75 404.431640625 73.8095703125 375 73.8095703125 c 0
 349.62890625 73.8095703125 345.23828125 68.4521484375 345.23828125 37.5 c 2
 345.23828125 1.1904296875 l 1
 229.166992188 4.76171875 l 1
 113.095703125 8.3330078125 l 1
 109.5234375 40.4765625 l 2
 107.010742188 63.095703125 98.1923828125 73.677734375 79.76171875 76.1904296875 c 0
 56.9873046875 79.2958984375 53.10546875 88.6904296875 50 148.213867188 c 2
 46.4287109375 216.666992188 l 1
 106.547851562 216.666992188 l 1
 166.666992188 216.666992188 l 1
 166.666992188 145.23828125 l 1
 166.666992188 73.8095703125 l 1
 226.190429688 73.8095703125 l 1
 285.713867188 73.8095703125 l 1
 285.713867188 180.952148438 l 1
 285.713867188 288.095703125 l 1
 225.595703125 288.095703125 l 2
 167.26171875 288.095703125 165.58203125 289.067382812 169.047851562 320.833007812 c 0
 172.280273438 350.469726562 177.9765625 353.91015625 229.166992188 357.142578125 c 2
 285.713867188 360.713867188 l 1
 285.713867188 467.857421875 l 1
 285.713867188 575 l 1
 229.166992188 571.428710938 l 1
 172.619140625 567.857421875 l 1
 169.047851562 499.404296875 l 1
 165.4765625 430.952148438 l 1
 105.952148438 430.952148438 l 1
 46.4287109375 430.952148438 l 1
 50 499.404296875 l 2
 53.16796875 560.119140625 56.599609375 568.260742188 80.357421875 571.428710938 c 0
 98.990234375 573.913085938 107.142578125 583.333007812 107.142578125 602.380859375 c 0
 107.142578125 617.857421875 110.506835938 633.125976562 114.880859375 637.5 c 0
EndSplineSet
Validated: 33
EndChar

StartChar: four
Encoding: 52 52 50
Width: 500
Flags: HW
LayerCount: 2
Fore
SplineSet
95.23828125 466.666992188 m 1
 95.23828125 645.23828125 l 1
 154.76171875 645.23828125 l 1
 214.286132812 645.23828125 l 1
 214.286132812 466.666992188 l 1
 214.286132812 288.095703125 l 1
 184.5234375 288.095703125 l 2
 159.72265625 288.095703125 154.76171875 282.142578125 154.76171875 252.380859375 c 0
 154.76171875 217.380859375 155.952148438 216.666992188 214.286132812 216.666992188 c 2
 273.809570312 216.666992188 l 1
 273.809570312 359.5234375 l 1
 273.809570312 502.380859375 l 1
 333.333007812 502.380859375 l 1
 392.857421875 502.380859375 l 1
 392.857421875 359.5234375 l 1
 392.857421875 216.666992188 l 1
 422.619140625 216.666992188 l 2
 447.420898438 216.666992188 452.380859375 210.713867188 452.380859375 180.952148438 c 0
 452.380859375 151.190429688 447.420898438 145.23828125 422.619140625 145.23828125 c 0
 394.345703125 145.23828125 392.857421875 141.666992188 392.857421875 73.8095703125 c 2
 392.857421875 2.380859375 l 1
 333.333007812 2.380859375 l 1
 273.809570312 2.380859375 l 1
 273.809570312 73.8095703125 l 1
 273.809570312 145.23828125 l 1
 154.76171875 145.23828125 l 1
 35.7138671875 145.23828125 l 1
 35.7138671875 216.666992188 l 2
 35.7138671875 284.5234375 37.2021484375 288.095703125 65.4765625 288.095703125 c 2
 95.23828125 288.095703125 l 1
 95.23828125 466.666992188 l 1
EndSplineSet
Validated: 1
EndChar

StartChar: five
Encoding: 53 53 51
Width: 500
Flags: HW
LayerCount: 2
Fore
SplineSet
35.7138671875 466.666992188 m 1
 35.7138671875 645.23828125 l 1
 214.286132812 645.23828125 l 1
 392.857421875 645.23828125 l 1
 392.857421875 609.5234375 l 1
 392.857421875 573.809570312 l 1
 273.809570312 573.809570312 l 1
 154.76171875 573.809570312 l 1
 154.76171875 466.666992188 l 1
 154.76171875 359.5234375 l 1
 244.047851562 359.5234375 l 1
 333.333007812 359.5234375 l 1
 333.333007812 323.809570312 l 2
 333.333007812 294.047851562 338.293945312 288.095703125 363.095703125 288.095703125 c 0
 391.369140625 288.095703125 392.857421875 284.5234375 392.857421875 216.666992188 c 0
 392.857421875 148.809570312 391.369140625 145.23828125 363.095703125 145.23828125 c 0
 338.293945312 145.23828125 333.333007812 139.286132812 333.333007812 109.5234375 c 0
 333.333007812 79.76171875 328.373046875 73.8095703125 303.571289062 73.8095703125 c 0
 278.76953125 73.8095703125 273.809570312 67.857421875 273.809570312 38.095703125 c 2
 273.809570312 2.380859375 l 1
 154.76171875 2.380859375 l 1
 35.7138671875 2.380859375 l 1
 35.7138671875 38.095703125 l 1
 35.7138671875 73.8095703125 l 1
 125 73.8095703125 l 1
 214.286132812 73.8095703125 l 1
 214.286132812 109.5234375 l 2
 214.286132812 139.286132812 219.24609375 145.23828125 244.047851562 145.23828125 c 0
 272.321289062 145.23828125 273.809570312 148.809570312 273.809570312 216.666992188 c 2
 273.809570312 288.095703125 l 1
 154.76171875 288.095703125 l 1
 35.7138671875 288.095703125 l 1
 35.7138671875 466.666992188 l 1
EndSplineSet
Validated: 1
EndChar

StartChar: six
Encoding: 54 54 52
Width: 500
Flags: HW
LayerCount: 2
Fore
SplineSet
178.571289062 574.404296875 m 2
 178.571289062 646.428710938 l 1
 264.880859375 642.857421875 l 2
 349.404296875 639.359375 351.264648438 638.608398438 354.76171875 606.547851562 c 0
 357.87890625 577.9765625 354.469726562 573.809570312 327.9765625 573.809570312 c 0
 301.666992188 573.809570312 297.619140625 569.047851562 297.619140625 538.095703125 c 0
 297.619140625 508.333007812 292.659179688 502.380859375 267.857421875 502.380859375 c 0
 242.634765625 502.380859375 238.095703125 497.0234375 238.095703125 467.26171875 c 0
 238.095703125 433.991210938 241.071289062 431.955078125 294.642578125 428.571289062 c 0
 345.833007812 425.337890625 351.529296875 421.955078125 354.76171875 392.857421875 c 0
 357.275390625 370.23828125 366.09375 359.65625 384.5234375 357.142578125 c 0
 409.803710938 353.6953125 410.713867188 348.809570312 410.713867188 216.666992188 c 0
 410.713867188 84.5234375 409.803710938 79.6376953125 384.5234375 76.1904296875 c 0
 366.09375 73.677734375 357.275390625 63.095703125 354.76171875 40.4765625 c 2
 351.190429688 8.3330078125 l 1
 235.119140625 4.76171875 l 1
 119.047851562 1.1904296875 l 1
 119.047851562 37.5 l 2
 119.047851562 68.4521484375 114.65625 73.8095703125 89.2861328125 73.8095703125 c 2
 59.5234375 73.8095703125 l 1
 59.5234375 252.380859375 l 1
 59.5234375 430.952148438 l 1
 89.2861328125 430.952148438 l 2
 114.086914062 430.952148438 119.047851562 436.904296875 119.047851562 466.666992188 c 0
 119.047851562 496.428710938 124.0078125 502.380859375 148.809570312 502.380859375 c 0
 177.341796875 502.380859375 178.571289062 505.357421875 178.571289062 574.404296875 c 2
297.619140625 216.666992188 m 1
 297.619140625 359.5234375 l 1
 238.095703125 359.5234375 l 1
 178.571289062 359.5234375 l 1
 178.571289062 216.666992188 l 1
 178.571289062 73.8095703125 l 1
 238.095703125 73.8095703125 l 1
 297.619140625 73.8095703125 l 1
 297.619140625 216.666992188 l 1
EndSplineSet
Validated: 33
EndChar

StartChar: seven
Encoding: 55 55 53
Width: 500
Flags: HW
LayerCount: 2
Fore
SplineSet
51.48828125 627.380859375 m 0
 57.1337890625 642.108398438 88.6904296875 645.23828125 231.547851562 645.23828125 c 2
 404.76171875 645.23828125 l 1
 404.76171875 573.809570312 l 2
 404.76171875 505.952148438 403.2734375 502.380859375 375 502.380859375 c 0
 346.7265625 502.380859375 345.23828125 498.809570312 345.23828125 430.952148438 c 0
 345.23828125 363.095703125 343.75 359.5234375 315.4765625 359.5234375 c 0
 287.202148438 359.5234375 285.713867188 355.952148438 285.713867188 288.095703125 c 0
 285.713867188 220.23828125 284.2265625 216.666992188 255.952148438 216.666992188 c 0
 226.354492188 216.666992188 226.190429688 216.071289062 226.190429688 108.928710938 c 2
 226.190429688 1.1904296875 l 1
 169.642578125 4.76171875 l 1
 113.095703125 8.3330078125 l 1
 109.5234375 112.5 l 2
 105.97265625 216.071289062 106.122070312 216.666992188 135.713867188 216.666992188 c 0
 163.665039062 216.666992188 165.693359375 220.833007812 169.047851562 285.119140625 c 0
 172.21484375 345.833007812 175.647460938 353.975585938 199.404296875 357.142578125 c 0
 223.71484375 360.383789062 226.190429688 367.26171875 226.190429688 431.547851562 c 0
 226.190429688 499.404296875 227.44140625 502.380859375 255.952148438 502.380859375 c 0
 280.75390625 502.380859375 285.713867188 508.333007812 285.713867188 538.095703125 c 2
 285.713867188 573.809570312 l 1
 172.619140625 573.809570312 l 2
 54.76171875 573.809570312 34.4033203125 582.813476562 51.48828125 627.380859375 c 0
EndSplineSet
Validated: 33
EndChar

StartChar: eight
Encoding: 56 56 54
Width: 500
Flags: HW
LayerCount: 2
Fore
SplineSet
119.047851562 609.5234375 m 2
 119.047851562 645.23828125 l 1
 238.095703125 645.23828125 l 1
 357.142578125 645.23828125 l 1
 357.142578125 609.5234375 l 2
 357.142578125 579.76171875 362.103515625 573.809570312 386.904296875 573.809570312 c 0
 416.3359375 573.809570312 416.666992188 572.619140625 416.666992188 466.666992188 c 0
 416.666992188 360.713867188 416.3359375 359.5234375 386.904296875 359.5234375 c 0
 362.103515625 359.5234375 357.142578125 353.571289062 357.142578125 323.809570312 c 0
 357.142578125 294.047851562 362.103515625 288.095703125 386.904296875 288.095703125 c 0
 416.3359375 288.095703125 416.666992188 286.904296875 416.666992188 180.952148438 c 0
 416.666992188 75 416.3359375 73.8095703125 386.904296875 73.8095703125 c 0
 362.103515625 73.8095703125 357.142578125 67.857421875 357.142578125 38.095703125 c 2
 357.142578125 2.380859375 l 1
 238.095703125 2.380859375 l 1
 119.047851562 2.380859375 l 1
 119.047851562 38.095703125 l 2
 119.047851562 67.857421875 114.086914062 73.8095703125 89.2861328125 73.8095703125 c 0
 59.8544921875 73.8095703125 59.5234375 75 59.5234375 180.952148438 c 0
 59.5234375 286.904296875 59.8544921875 288.095703125 89.2861328125 288.095703125 c 0
 114.086914062 288.095703125 119.047851562 294.047851562 119.047851562 323.809570312 c 0
 119.047851562 353.571289062 114.086914062 359.5234375 89.2861328125 359.5234375 c 0
 59.8544921875 359.5234375 59.5234375 360.713867188 59.5234375 466.666992188 c 0
 59.5234375 572.619140625 59.8544921875 573.809570312 89.2861328125 573.809570312 c 0
 114.086914062 573.809570312 119.047851562 579.76171875 119.047851562 609.5234375 c 2
297.619140625 466.666992188 m 2
 297.619140625 573.809570312 l 1
 238.095703125 573.809570312 l 1
 178.571289062 573.809570312 l 1
 178.571289062 502.380859375 l 2
 178.571289062 434.5234375 180.059570312 430.952148438 208.333007812 430.952148438 c 0
 233.134765625 430.952148438 238.095703125 425 238.095703125 395.23828125 c 0
 238.095703125 365.4765625 243.055664062 359.5234375 267.857421875 359.5234375 c 0
 297.288085938 359.5234375 297.619140625 360.713867188 297.619140625 466.666992188 c 2
238.095703125 252.380859375 m 0
 238.095703125 282.142578125 233.134765625 288.095703125 208.333007812 288.095703125 c 0
 178.90234375 288.095703125 178.571289062 286.904296875 178.571289062 180.952148438 c 2
 178.571289062 73.8095703125 l 1
 238.095703125 73.8095703125 l 1
 297.619140625 73.8095703125 l 1
 297.619140625 145.23828125 l 2
 297.619140625 213.095703125 296.130859375 216.666992188 267.857421875 216.666992188 c 0
 243.055664062 216.666992188 238.095703125 222.619140625 238.095703125 252.380859375 c 0
EndSplineSet
Validated: 1
EndChar

StartChar: nine
Encoding: 57 57 55
Width: 500
Flags: HW
LayerCount: 2
Fore
SplineSet
119.047851562 609.5234375 m 2
 119.047851562 645.23828125 l 1
 238.095703125 645.23828125 l 1
 357.142578125 645.23828125 l 1
 357.142578125 609.5234375 l 2
 357.142578125 579.76171875 362.103515625 573.809570312 386.904296875 573.809570312 c 2
 416.666992188 573.809570312 l 1
 416.666992188 395.23828125 l 1
 416.666992188 216.666992188 l 1
 386.904296875 216.666992188 l 2
 362.103515625 216.666992188 357.142578125 210.713867188 357.142578125 180.952148438 c 0
 357.142578125 151.190429688 352.182617188 145.23828125 327.380859375 145.23828125 c 0
 299.107421875 145.23828125 297.619140625 141.666992188 297.619140625 73.8095703125 c 2
 297.619140625 2.380859375 l 1
 208.333007812 2.380859375 l 1
 119.047851562 2.380859375 l 1
 119.047851562 38.095703125 l 2
 119.047851562 67.857421875 124.0078125 73.8095703125 148.809570312 73.8095703125 c 0
 173.611328125 73.8095703125 178.571289062 79.76171875 178.571289062 109.5234375 c 0
 178.571289062 139.286132812 183.532226562 145.23828125 208.333007812 145.23828125 c 0
 233.134765625 145.23828125 238.095703125 151.190429688 238.095703125 180.952148438 c 0
 238.095703125 215.952148438 236.904296875 216.666992188 178.571289062 216.666992188 c 0
 120.23828125 216.666992188 119.047851562 217.380859375 119.047851562 252.380859375 c 0
 119.047851562 282.142578125 114.086914062 288.095703125 89.2861328125 288.095703125 c 2
 59.5234375 288.095703125 l 1
 59.5234375 430.952148438 l 1
 59.5234375 573.809570312 l 1
 89.2861328125 573.809570312 l 2
 114.086914062 573.809570312 119.047851562 579.76171875 119.047851562 609.5234375 c 2
297.619140625 430.952148438 m 1
 297.619140625 573.809570312 l 1
 238.095703125 573.809570312 l 1
 178.571289062 573.809570312 l 1
 178.571289062 430.952148438 l 1
 178.571289062 288.095703125 l 1
 238.095703125 288.095703125 l 1
 297.619140625 288.095703125 l 1
 297.619140625 430.952148438 l 1
EndSplineSet
Validated: 1
EndChar

StartChar: zero
Encoding: 48 48 56
Width: 500
Flags: HW
LayerCount: 2
Fore
SplineSet
130.952148438 610.119140625 m 2
 130.952148438 646.428710938 l 1
 247.0234375 642.857421875 l 1
 363.095703125 639.286132812 l 1
 360.713867188 607.142578125 l 2
 358.774414062 580.952148438 364.286132812 574.338867188 390.4765625 571.428710938 c 2
 422.619140625 567.857421875 l 1
 425 337.5 l 2
 426.3046875 211.309570312 424.419921875 99.875 420.833007812 91.0712890625 c 0
 417.178710938 82.1015625 402.9765625 73.421875 388.690429688 71.4287109375 c 0
 370.26171875 68.857421875 363.095703125 59.5234375 363.095703125 38.095703125 c 0
 363.095703125 8.486328125 362.5 8.3154296875 247.0234375 4.76171875 c 2
 130.952148438 1.1904296875 l 1
 130.952148438 37.5 l 2
 130.952148438 68.4521484375 126.561523438 73.8095703125 101.190429688 73.8095703125 c 2
 71.4287109375 73.8095703125 l 1
 71.4287109375 323.809570312 l 1
 71.4287109375 573.809570312 l 1
 101.190429688 573.809570312 l 2
 126.561523438 573.809570312 130.952148438 579.166992188 130.952148438 610.119140625 c 2
307.142578125 535.119140625 m 0
 303.91015625 564.755859375 298.213867188 568.1953125 247.0234375 571.428710938 c 2
 190.4765625 575 l 1
 190.4765625 431.547851562 l 1
 190.4765625 288.095703125 l 1
 220.23828125 288.095703125 l 2
 248.51171875 288.095703125 250 284.5234375 250 216.666992188 c 0
 250 148.809570312 248.51171875 145.23828125 220.23828125 145.23828125 c 0
 194.8671875 145.23828125 190.4765625 139.880859375 190.4765625 108.928710938 c 0
 190.4765625 73.0009765625 191.071289062 72.65625 247.0234375 76.1904296875 c 2
 303.571289062 79.76171875 l 1
 303.571289062 216.666992188 l 2
 303.571289062 350 302.873046875 353.665039062 276.786132812 357.142578125 c 0
 252.475585938 360.383789062 250 367.26171875 250 431.547851562 c 0
 250 499.404296875 251.275390625 502.380859375 280.357421875 502.380859375 c 0
 306.850585938 502.380859375 310.259765625 506.547851562 307.142578125 535.119140625 c 0
EndSplineSet
Validated: 33
EndChar

StartChar: j
Encoding: 106 106 57
Width: 500
Flags: HW
LayerCount: 2
Fore
SplineSet
130.952148438 478.571289062 m 2
 130.952148438 514.286132812 l 1
 250 514.286132812 l 1
 369.047851562 514.286132812 l 1
 366.071289062 195.833007812 l 2
 363.791015625 -48.2138671875 359.618164062 -122.897460938 348.213867188 -123.809570312 c 0
 339.880859375 -124.4765625 328.095703125 -125.786132812 321.428710938 -126.786132812 c 0
 314.76171875 -127.786132812 309.5234375 -141.666992188 309.5234375 -158.333007812 c 2
 309.5234375 -188.095703125 l 1
 190.4765625 -188.095703125 l 2
 71.4287109375 -188.095703125 71.4287109375 -188.095703125 71.4287109375 -158.928710938 c 0
 71.4287109375 -130.767578125 74.404296875 -129.638671875 157.73828125 -126.190429688 c 2
 244.047851562 -122.619140625 l 1
 247.0234375 160.119140625 l 1
 250 442.857421875 l 1
 190.4765625 442.857421875 l 2
 132.142578125 442.857421875 130.952148438 443.571289062 130.952148438 478.571289062 c 2
250 657.142578125 m 1
 250 728.571289062 l 1
 309.5234375 728.571289062 l 1
 369.047851562 728.571289062 l 1
 369.047851562 657.142578125 l 1
 369.047851562 585.713867188 l 1
 309.5234375 585.713867188 l 1
 250 585.713867188 l 1
 250 657.142578125 l 1
EndSplineSet
Validated: 1
EndChar

StartChar: o
Encoding: 111 111 58
Width: 500
Flags: HW
LayerCount: 2
Fore
SplineSet
119.047851562 478.571289062 m 2
 119.047851562 514.286132812 l 1
 238.095703125 514.286132812 l 1
 357.142578125 514.286132812 l 1
 357.142578125 478.571289062 l 2
 357.142578125 448.809570312 362.103515625 442.857421875 386.904296875 442.857421875 c 2
 416.666992188 442.857421875 l 1
 416.666992188 264.286132812 l 1
 416.666992188 85.7138671875 l 1
 386.904296875 85.7138671875 l 2
 361.534179688 85.7138671875 357.142578125 80.357421875 357.142578125 49.404296875 c 2
 357.142578125 13.095703125 l 1
 241.071289062 16.6669921875 l 2
 125.595703125 20.2197265625 125 20.390625 125 50 c 0
 125 72.619140625 117.857421875 81.1904296875 95.23828125 85.7138671875 c 2
 65.4765625 91.6669921875 l 1
 61.904296875 267.26171875 l 1
 58.3330078125 442.857421875 l 1
 88.6904296875 442.857421875 l 2
 113.98828125 442.857421875 119.047851562 448.809570312 119.047851562 478.571289062 c 2
297.619140625 263.690429688 m 1
 297.619140625 442.857421875 l 1
 237.5 442.857421875 l 1
 177.380859375 442.857421875 l 1
 180.952148438 267.26171875 l 1
 184.5234375 91.6669921875 l 1
 241.071289062 88.095703125 l 1
 297.619140625 84.5234375 l 1
 297.619140625 263.690429688 l 1
EndSplineSet
Validated: 1
EndChar

StartChar: p
Encoding: 112 112 59
Width: 500
Flags: HW
LayerCount: 2
Fore
SplineSet
59.5234375 163.095703125 m 1
 59.5234375 514.286132812 l 1
 208.333007812 514.286132812 l 1
 357.142578125 514.286132812 l 1
 357.142578125 478.571289062 l 2
 357.142578125 448.809570312 362.103515625 442.857421875 386.904296875 442.857421875 c 2
 416.666992188 442.857421875 l 1
 416.666992188 264.286132812 l 1
 416.666992188 85.7138671875 l 1
 386.904296875 85.7138671875 l 2
 362.103515625 85.7138671875 357.142578125 79.76171875 357.142578125 50 c 2
 357.142578125 14.2861328125 l 1
 267.857421875 14.2861328125 l 1
 178.571289062 14.2861328125 l 1
 178.571289062 -90.4765625 l 1
 178.571289062 -195.23828125 l 1
 145.833007812 -192.857421875 l 2
 127.9765625 -191.55859375 100.919921875 -189.935546875 86.3095703125 -189.286132812 c 2
 59.5234375 -188.095703125 l 1
 59.5234375 163.095703125 l 1
297.619140625 263.690429688 m 1
 297.619140625 442.857421875 l 1
 237.5 442.857421875 l 1
 177.380859375 442.857421875 l 1
 180.952148438 267.26171875 l 1
 184.5234375 91.6669921875 l 1
 241.071289062 88.095703125 l 1
 297.619140625 84.5234375 l 1
 297.619140625 263.690429688 l 1
EndSplineSet
Validated: 1
EndChar

StartChar: q
Encoding: 113 113 60
Width: 500
Flags: HW
LayerCount: 2
Fore
SplineSet
119.047851562 478.571289062 m 2
 119.047851562 514.286132812 l 1
 267.857421875 514.286132812 l 1
 416.666992188 514.286132812 l 1
 416.666992188 164.286132812 l 1
 416.666992188 -185.713867188 l 1
 357.142578125 -189.880859375 l 1
 297.619140625 -194.047851562 l 1
 297.619140625 -89.880859375 l 1
 297.619140625 14.2861328125 l 1
 208.333007812 14.2861328125 l 1
 119.047851562 14.2861328125 l 1
 119.047851562 50 l 2
 119.047851562 79.76171875 114.086914062 85.7138671875 89.2861328125 85.7138671875 c 2
 59.5234375 85.7138671875 l 1
 59.5234375 264.286132812 l 1
 59.5234375 442.857421875 l 1
 89.2861328125 442.857421875 l 2
 114.086914062 442.857421875 119.047851562 448.809570312 119.047851562 478.571289062 c 2
297.619140625 264.286132812 m 1
 297.619140625 442.857421875 l 1
 238.095703125 442.857421875 l 1
 178.571289062 442.857421875 l 1
 178.571289062 264.286132812 l 1
 178.571289062 85.7138671875 l 1
 238.095703125 85.7138671875 l 1
 297.619140625 85.7138671875 l 1
 297.619140625 264.286132812 l 1
EndSplineSet
Validated: 1
EndChar

StartChar: t
Encoding: 116 116 61
Width: 500
Flags: HW
LayerCount: 2
Fore
SplineSet
119.047851562 585.713867188 m 2
 119.047851562 657.142578125 l 1
 178.571289062 657.142578125 l 1
 238.095703125 657.142578125 l 1
 238.095703125 585.713867188 l 1
 238.095703125 514.286132812 l 1
 327.380859375 514.286132812 l 1
 416.666992188 514.286132812 l 1
 416.666992188 478.571289062 l 1
 416.666992188 442.857421875 l 5
 327.380859375 442.857421875 l 1
 238.095703125 442.857421875 l 1
 238.095703125 264.286132812 l 1
 238.095703125 85.7138671875 l 1
 327.380859375 85.7138671875 l 1
 416.666992188 85.7138671875 l 1
 416.666992188 49.404296875 l 1
 416.666992188 13.095703125 l 1
 300.595703125 16.6669921875 l 1
 184.5234375 20.23828125 l 1
 180.952148438 52.380859375 l 2
 178.439453125 75 169.62109375 85.58203125 151.190429688 88.095703125 c 0
 125.798828125 91.5576171875 124.890625 97.0234375 121.428710938 267.26171875 c 2
 117.857421875 442.857421875 l 1
 88.6904296875 442.857421875 l 2
 64.384765625 442.857421875 59.5234375 448.809570312 59.5234375 478.571289062 c 0
 59.5234375 508.333007812 64.484375 514.286132812 89.2861328125 514.286132812 c 0
 117.559570312 514.286132812 119.047851562 517.857421875 119.047851562 585.713867188 c 2
EndSplineSet
Validated: 1
EndChar

StartChar: v
Encoding: 118 118 62
Width: 500
Flags: HW
LayerCount: 2
Fore
SplineSet
59.5234375 335.713867188 m 1
 59.5234375 514.286132812 l 1
 119.047851562 514.286132812 l 1
 178.571289062 514.286132812 l 1
 178.571289062 335.119140625 l 1
 178.571289062 155.952148438 l 1
 235.119140625 159.5234375 l 1
 291.666992188 163.095703125 l 1
 295.23828125 338.690429688 l 1
 298.809570312 514.286132812 l 1
 358.333007812 514.286132812 l 1
 417.857421875 514.286132812 l 1
 414.286132812 338.690429688 l 2
 410.823242188 168.452148438 409.915039062 162.986328125 384.5234375 159.5234375 c 0
 366.09375 157.010742188 357.275390625 146.428710938 354.76171875 123.809570312 c 0
 352.249023438 101.190429688 343.430664062 90.6083984375 325 88.095703125 c 0
 306.569335938 85.58203125 297.750976562 75 295.23828125 52.380859375 c 0
 292.004882812 23.283203125 286.309570312 19.8994140625 235.119140625 16.6669921875 c 0
 179.166992188 13.1328125 178.571289062 13.4775390625 178.571289062 49.404296875 c 0
 178.571289062 80.357421875 174.180664062 85.7138671875 148.809570312 85.7138671875 c 0
 124.0078125 85.7138671875 119.047851562 91.6669921875 119.047851562 121.428710938 c 0
 119.047851562 151.190429688 114.086914062 157.142578125 89.2861328125 157.142578125 c 2
 59.5234375 157.142578125 l 1
 59.5234375 335.713867188 l 1
EndSplineSet
Validated: 33
EndChar

StartChar: w
Encoding: 119 119 63
Width: 500
Flags: HW
LayerCount: 2
Fore
SplineSet
37.5 338.690429688 m 2
 33.3330078125 514.286132812 l 1
 93.4521484375 514.286132812 l 1
 153.571289062 514.286132812 l 1
 157.142578125 338.690429688 l 1
 160.713867188 163.095703125 l 1
 190.4765625 159.5234375 l 1
 220.23828125 155.952148438 l 1
 220.23828125 296.428710938 l 2
 220.23828125 433.333007812 220.918945312 436.995117188 247.0234375 440.4765625 c 0
 273.4765625 444.002929688 273.809570312 442.26171875 273.809570312 300.595703125 c 2
 273.809570312 157.142578125 l 1
 303.571289062 157.142578125 l 1
 333.333007812 157.142578125 l 1
 333.333007812 335.713867188 l 1
 333.333007812 514.286132812 l 1
 392.857421875 514.286132812 l 1
 452.380859375 514.286132812 l 1
 452.380859375 335.713867188 l 1
 452.380859375 157.142578125 l 1
 422.619140625 157.142578125 l 2
 394.086914062 157.142578125 392.857421875 154.166992188 392.857421875 85.119140625 c 2
 392.857421875 13.095703125 l 1
 336.309570312 16.6669921875 l 1
 279.76171875 20.23828125 l 1
 276.190429688 89.2861328125 l 2
 272.926757812 152.380859375 270.361328125 158.025390625 246.428710938 154.76171875 c 0
 223.399414062 151.62109375 219.806640625 142.857421875 216.666992188 82.142578125 c 2
 213.095703125 13.095703125 l 1
 157.142578125 16.6669921875 l 1
 101.190429688 20.23828125 l 1
 97.619140625 88.095703125 l 2
 94.486328125 147.619140625 90.8310546875 156.390625 67.857421875 159.5234375 c 0
 42.4658203125 162.986328125 41.5390625 168.452148438 37.5 338.690429688 c 2
EndSplineSet
Validated: 33
EndChar

StartChar: x
Encoding: 120 120 64
Width: 500
Flags: HW
LayerCount: 2
Fore
SplineSet
47.619140625 442.857421875 m 2
 47.619140625 514.286132812 l 1
 107.142578125 514.286132812 l 1
 166.666992188 514.286132812 l 1
 166.666992188 442.857421875 l 1
 166.666992188 371.428710938 l 1
 226.190429688 371.428710938 l 1
 285.713867188 371.428710938 l 1
 285.713867188 442.857421875 l 1
 285.713867188 514.286132812 l 1
 345.23828125 514.286132812 l 1
 404.76171875 514.286132812 l 1
 404.76171875 442.857421875 l 2
 404.76171875 375 403.2734375 371.428710938 375 371.428710938 c 0
 350.198242188 371.428710938 345.23828125 365.4765625 345.23828125 335.713867188 c 0
 345.23828125 305.952148438 340.27734375 300 315.4765625 300 c 0
 290.674804688 300 285.713867188 294.047851562 285.713867188 264.286132812 c 0
 285.713867188 234.5234375 290.674804688 228.571289062 315.4765625 228.571289062 c 0
 340.27734375 228.571289062 345.23828125 222.619140625 345.23828125 192.857421875 c 0
 345.23828125 163.095703125 350.198242188 157.142578125 375 157.142578125 c 0
 403.2734375 157.142578125 404.76171875 153.571289062 404.76171875 85.7138671875 c 2
 404.76171875 14.2861328125 l 1
 345.23828125 14.2861328125 l 1
 285.713867188 14.2861328125 l 1
 285.713867188 85.7138671875 l 1
 285.713867188 157.142578125 l 1
 226.190429688 157.142578125 l 1
 166.666992188 157.142578125 l 1
 166.666992188 85.119140625 l 1
 166.666992188 13.095703125 l 1
 110.119140625 16.6669921875 l 1
 53.5712890625 20.23828125 l 1
 50 88.6904296875 l 2
 46.521484375 155.357421875 47.220703125 157.142578125 76.7861328125 157.142578125 c 0
 102.083007812 157.142578125 107.142578125 163.095703125 107.142578125 192.857421875 c 0
 107.142578125 222.619140625 112.103515625 228.571289062 136.904296875 228.571289062 c 0
 161.706054688 228.571289062 166.666992188 234.5234375 166.666992188 264.286132812 c 0
 166.666992188 294.047851562 161.706054688 300 136.904296875 300 c 0
 112.103515625 300 107.142578125 305.952148438 107.142578125 335.713867188 c 0
 107.142578125 365.4765625 102.182617188 371.428710938 77.380859375 371.428710938 c 0
 49.107421875 371.428710938 47.619140625 375 47.619140625 442.857421875 c 2
EndSplineSet
Validated: 33
EndChar

StartChar: y
Encoding: 121 121 65
Width: 500
Flags: HW
LayerCount: 2
Fore
SplineSet
59.5234375 300 m 1
 59.5234375 514.286132812 l 1
 119.047851562 514.286132812 l 1
 178.571289062 514.286132812 l 1
 178.571289062 300 l 1
 178.571289062 85.7138671875 l 1
 238.095703125 85.7138671875 l 1
 297.619140625 85.7138671875 l 1
 297.619140625 300 l 1
 297.619140625 514.286132812 l 1
 357.142578125 514.286132812 l 1
 416.666992188 514.286132812 l 1
 416.666992188 300 l 1
 416.666992188 85.7138671875 l 1
 386.904296875 85.7138671875 l 2
 358.630859375 85.7138671875 357.142578125 82.142578125 357.142578125 14.2861328125 c 0
 357.142578125 -53.5712890625 355.684570312 -57.142578125 327.9765625 -57.142578125 c 0
 304.642578125 -57.142578125 298.095703125 -63.6904296875 295.23828125 -89.880859375 c 0
 292.640625 -113.690429688 285.172851562 -122.619140625 267.857421875 -122.619140625 c 0
 250.541015625 -122.619140625 243.073242188 -131.547851562 240.4765625 -155.357421875 c 2
 236.904296875 -188.095703125 l 1
 118.452148438 -188.095703125 l 2
 0.595703125 -188.095703125 0 -187.9453125 0 -158.333007812 c 0
 0 -130.084960938 3.5712890625 -128.571289062 70.23828125 -128.571289062 c 0
 159.5234375 -128.571289062 178.571289062 -121.036132812 178.571289062 -85.7138671875 c 0
 178.571289062 -62.857421875 184.5234375 -57.142578125 208.333007812 -57.142578125 c 0
 233.134765625 -57.142578125 238.095703125 -51.1904296875 238.095703125 -21.4287109375 c 0
 238.095703125 13.5712890625 236.904296875 14.2861328125 178.571289062 14.2861328125 c 0
 120.23828125 14.2861328125 119.047851562 15 119.047851562 50 c 0
 119.047851562 79.76171875 114.086914062 85.7138671875 89.2861328125 85.7138671875 c 2
 59.5234375 85.7138671875 l 1
 59.5234375 300 l 1
EndSplineSet
Validated: 1
EndChar

StartChar: z
Encoding: 122 122 66
Width: 500
Flags: HW
LayerCount: 2
Fore
SplineSet
59.5234375 478.571289062 m 1
 59.5234375 514.286132812 l 1
 238.690429688 514.286132812 l 1
 417.857421875 514.286132812 l 1
 414.286132812 445.833007812 l 2
 411.055664062 383.928710938 407.8671875 376.811523438 380.952148438 371.428710938 c 0
 358.333007812 366.904296875 351.190429688 358.333007812 351.190429688 335.713867188 c 0
 351.190429688 314.286132812 343.690429688 304.952148438 324.404296875 302.380859375 c 0
 303.520507812 299.596679688 297.619140625 291.071289062 297.619140625 263.690429688 c 0
 297.619140625 233.928710938 293.169921875 228.571289062 268.452148438 228.571289062 c 0
 245.119140625 228.571289062 238.571289062 222.0234375 235.713867188 195.833007812 c 0
 233.1171875 172.0234375 224.837890625 162.12109375 205.357421875 159.5234375 c 0
 184.473632812 156.739257812 178.571289062 148.213867188 178.571289062 120.833007812 c 2
 178.571289062 85.7138671875 l 1
 298.213867188 85.7138671875 l 1
 417.857421875 85.7138671875 l 1
 414.286132812 52.9765625 l 1
 410.713867188 20.23828125 l 1
 235.119140625 16.6669921875 l 1
 59.5234375 13.095703125 l 1
 59.5234375 84.5234375 l 2
 59.5234375 150 61.755859375 156.25 86.3095703125 159.5234375 c 0
 105.790039062 162.12109375 114.069335938 172.0234375 116.666992188 195.833007812 c 0
 119.5234375 222.0234375 126.071289062 228.571289062 149.404296875 228.571289062 c 0
 173.709960938 228.571289062 178.571289062 234.5234375 178.571289062 264.286132812 c 0
 178.571289062 294.047851562 183.532226562 300 208.333007812 300 c 0
 233.555664062 300 238.095703125 305.357421875 238.095703125 335.119140625 c 0
 238.095703125 362.5 243.997070312 371.025390625 264.880859375 373.809570312 c 0
 284.361328125 376.407226562 292.640625 386.309570312 295.23828125 410.119140625 c 2
 298.809570312 442.857421875 l 1
 179.166992188 442.857421875 l 1
 59.5234375 442.857421875 l 1
 59.5234375 478.571289062 l 1
EndSplineSet
Validated: 1
EndChar

StartChar: h
Encoding: 104 104 67
Width: 500
Flags: HW
LayerCount: 2
Fore
SplineSet
62.5 338.690429688 m 1
 59.5234375 657.142578125 l 1
 119.047851562 657.142578125 l 1
 178.571289062 657.142578125 l 1
 178.571289062 585.713867188 l 1
 178.571289062 514.286132812 l 1
 267.857421875 514.286132812 l 1
 357.142578125 514.286132812 l 1
 357.142578125 478.571289062 l 2
 357.142578125 448.809570312 362.103515625 442.857421875 386.904296875 442.857421875 c 2
 416.666992188 442.857421875 l 1
 416.666992188 228.571289062 l 1
 416.666992188 14.2861328125 l 1
 357.142578125 14.2861328125 l 1
 297.619140625 14.2861328125 l 1
 297.619140625 228.571289062 l 1
 297.619140625 442.857421875 l 1
 238.095703125 442.857421875 l 1
 178.571289062 442.857421875 l 1
 178.571289062 227.9765625 l 1
 178.571289062 13.095703125 l 1
 122.0234375 16.6669921875 l 1
 65.4765625 20.23828125 l 1
 62.5 338.690429688 l 1
EndSplineSet
Validated: 1
EndChar

StartChar: Q
Encoding: 81 81 68
Width: 500
Flags: HW
LayerCount: 2
Fore
SplineSet
119.047851562 609.5234375 m 2
 119.047851562 645.23828125 l 1
 238.095703125 645.23828125 l 1
 357.142578125 645.23828125 l 1
 357.142578125 609.5234375 l 2
 357.142578125 579.76171875 362.103515625 573.809570312 386.904296875 573.809570312 c 2
 416.666992188 573.809570312 l 1
 416.666992188 329.76171875 l 1
 416.666992188 85.7138671875 l 1
 386.904296875 85.7138671875 l 2
 358.630859375 85.7138671875 357.142578125 82.142578125 357.142578125 14.2861328125 c 0
 357.142578125 -53.5712890625 358.630859375 -57.142578125 386.904296875 -57.142578125 c 0
 411.706054688 -57.142578125 416.666992188 -63.095703125 416.666992188 -92.857421875 c 0
 416.666992188 -127.857421875 415.4765625 -128.571289062 357.142578125 -128.571289062 c 0
 298.809570312 -128.571289062 297.619140625 -127.857421875 297.619140625 -92.857421875 c 0
 297.619140625 -63.095703125 292.659179688 -57.142578125 267.857421875 -57.142578125 c 0
 243.055664062 -57.142578125 238.095703125 -51.1904296875 238.095703125 -21.4287109375 c 0
 238.095703125 13.5712890625 236.904296875 14.2861328125 178.571289062 14.2861328125 c 0
 120.23828125 14.2861328125 119.047851562 15 119.047851562 50 c 0
 119.047851562 79.76171875 114.086914062 85.7138671875 89.2861328125 85.7138671875 c 2
 59.5234375 85.7138671875 l 1
 59.5234375 329.76171875 l 1
 59.5234375 573.809570312 l 1
 89.2861328125 573.809570312 l 2
 114.086914062 573.809570312 119.047851562 579.76171875 119.047851562 609.5234375 c 2
297.619140625 329.76171875 m 1
 297.619140625 573.809570312 l 1
 238.095703125 573.809570312 l 1
 178.571289062 573.809570312 l 1
 178.571289062 329.76171875 l 1
 178.571289062 85.7138671875 l 1
 238.095703125 85.7138671875 l 1
 297.619140625 85.7138671875 l 1
 297.619140625 329.76171875 l 1
EndSplineSet
Validated: 1
EndChar

StartChar: R
Encoding: 82 82 69
Width: 500
Flags: HW
LayerCount: 2
Fore
SplineSet
59.5234375 329.76171875 m 1
 59.5234375 645.23828125 l 1
 208.333007812 645.23828125 l 1
 357.142578125 645.23828125 l 1
 357.142578125 609.5234375 l 2
 357.142578125 579.76171875 362.202148438 573.809570312 387.5 573.809570312 c 2
 417.857421875 573.809570312 l 1
 414.286132812 469.642578125 l 2
 410.938476562 372.0234375 409.030273438 365.251953125 383.928710938 361.904296875 c 0
 359.375 358.630859375 357.142578125 352.380859375 357.142578125 286.904296875 c 0
 357.142578125 247.619140625 361.963867188 218.422851562 367.857421875 222.0234375 c 0
 373.883789062 225.70703125 386.904296875 225.446289062 397.619140625 221.428710938 c 0
 413.038085938 215.646484375 416.666992188 195.23828125 416.666992188 114.286132812 c 2
 416.666992188 14.2861328125 l 1
 357.73828125 14.2861328125 l 1
 298.809570312 14.2861328125 l 1
 295.23828125 118.452148438 l 2
 291.97265625 213.690429688 289.625976562 222.619140625 267.857421875 222.619140625 c 0
 250.396484375 222.619140625 242.459960938 232.142578125 238.095703125 258.333007812 c 0
 233.73046875 284.5234375 225 294.365234375 205.357421875 295.23828125 c 0
 178.91015625 296.413085938 178.571289062 294.642578125 178.571289062 155.357421875 c 2
 178.571289062 14.2861328125 l 1
 119.047851562 14.2861328125 l 1
 59.5234375 14.2861328125 l 1
 59.5234375 329.76171875 l 1
295.23828125 469.642578125 m 1
 298.809570312 573.809570312 l 1
 238.690429688 573.809570312 l 1
 178.571289062 573.809570312 l 1
 178.571289062 466.071289062 l 1
 178.571289062 358.333007812 l 1
 235.119140625 361.904296875 l 1
 291.666992188 365.4765625 l 1
 295.23828125 469.642578125 l 1
EndSplineSet
Validated: 33
EndChar

StartChar: S
Encoding: 83 83 70
Width: 500
Flags: HW
LayerCount: 2
Fore
SplineSet
111.904296875 629.166992188 m 0
 116.353515625 641.177734375 146.428710938 645.23828125 230.952148438 645.23828125 c 2
 344.047851562 645.23828125 l 1
 347.619140625 612.5 l 2
 350.216796875 588.690429688 358.49609375 578.788085938 377.9765625 576.190429688 c 0
 398.51171875 573.452148438 404.76171875 564.286132812 404.76171875 536.904296875 c 0
 404.76171875 501.56640625 404.166992188 501.228515625 348.213867188 504.76171875 c 0
 297.0234375 507.995117188 291.328125 511.434570312 288.095703125 541.071289062 c 0
 284.73828125 571.845703125 280.952148438 573.809570312 225 573.809570312 c 2
 165.4765625 573.809570312 l 1
 169.047851562 505.357421875 l 2
 172.153320312 445.833007812 176.03515625 436.438476562 198.809570312 433.333007812 c 0
 217.240234375 430.8203125 226.05859375 420.23828125 228.571289062 397.619140625 c 0
 231.084960938 375 239.903320312 364.41796875 258.333007812 361.904296875 c 0
 276.763671875 359.391601562 285.58203125 348.809570312 288.095703125 326.190429688 c 0
 290.079101562 308.333007812 298.280273438 293.518554688 306.547851562 292.857421875 c 0
 314.880859375 292.190429688 326.666992188 290.880859375 333.333007812 289.880859375 c 0
 339.650390625 288.93359375 345.23828125 274.404296875 345.23828125 258.928710938 c 0
 345.23828125 237.5 352.344726562 228.814453125 372.0234375 226.190429688 c 0
 395.727539062 223.030273438 399.220703125 214.880859375 402.380859375 155.357421875 c 0
 405.66796875 93.4521484375 403.771484375 87.763671875 378.571289062 83.9287109375 c 0
 358.658203125 80.8984375 350.216796875 70.8330078125 347.619140625 47.0234375 c 2
 344.047851562 14.2861328125 l 1
 225.595703125 14.2861328125 l 1
 107.142578125 14.2861328125 l 1
 107.142578125 50 l 2
 107.142578125 77.380859375 101.865234375 85.7138671875 84.5234375 85.7138671875 c 0
 60.7138671875 85.7138671875 40.4931640625 124.352539062 53.373046875 145.23828125 c 0
 57.33203125 151.658203125 85.119140625 157.142578125 113.690429688 157.142578125 c 0
 164.880859375 157.142578125 166.666992188 155.939453125 166.666992188 121.428710938 c 0
 166.666992188 86.775390625 168.452148438 85.7138671875 226.786132812 85.7138671875 c 2
 286.904296875 85.7138671875 l 1
 283.333007812 154.166992188 l 2
 280.166015625 214.880859375 276.734375 223.022460938 252.9765625 226.190429688 c 0
 232.440429688 228.928710938 226.190429688 238.095703125 226.190429688 265.4765625 c 0
 226.190429688 295.23828125 221.7265625 300.595703125 199.404296875 297.619140625 c 0
 177.579101562 294.708984375 171.958007812 300 169.047851562 326.190429688 c 0
 166.534179688 348.809570312 157.715820312 359.391601562 139.286132812 361.904296875 c 0
 118.915039062 364.682617188 113.624023438 372.619140625 115.4765625 397.619140625 c 0
 117.416015625 423.809570312 111.904296875 430.422851562 85.7138671875 433.333007812 c 0
 55.0458984375 436.741210938 53.5712890625 439.880859375 53.5712890625 501.786132812 c 0
 53.5712890625 561.309570312 56.029296875 567.305664062 83.3330078125 574.404296875 c 0
 100 578.73828125 111.5234375 588.952148438 109.5234375 597.619140625 c 0
 107.671875 605.643554688 108.818359375 620.833007812 111.904296875 629.166992188 c 0
EndSplineSet
Validated: 33
EndChar

StartChar: T
Encoding: 84 84 71
Width: 500
Flags: HW
LayerCount: 2
Fore
SplineSet
59.5234375 609.5234375 m 2
 59.5234375 645.23828125 l 1
 238.095703125 645.23828125 l 1
 416.666992188 645.23828125 l 1
 416.666992188 609.5234375 l 2
 416.666992188 574.5234375 415.4765625 573.809570312 357.142578125 573.809570312 c 2
 297.619140625 573.809570312 l 1
 297.619140625 294.047851562 l 1
 297.619140625 14.2861328125 l 1
 238.095703125 14.2861328125 l 1
 178.571289062 14.2861328125 l 1
 178.571289062 294.047851562 l 1
 178.571289062 573.809570312 l 1
 119.047851562 573.809570312 l 2
 60.7138671875 573.809570312 59.5234375 574.5234375 59.5234375 609.5234375 c 2
EndSplineSet
Validated: 1
EndChar

StartChar: U
Encoding: 85 85 72
Width: 500
Flags: HW
LayerCount: 2
Fore
SplineSet
59.5234375 365.4765625 m 1
 59.5234375 645.23828125 l 1
 119.047851562 645.23828125 l 1
 178.571289062 645.23828125 l 1
 178.571289062 365.4765625 l 1
 178.571289062 85.7138671875 l 1
 238.095703125 85.7138671875 l 1
 297.619140625 85.7138671875 l 1
 297.619140625 365.4765625 l 1
 297.619140625 645.23828125 l 1
 357.142578125 645.23828125 l 1
 416.666992188 645.23828125 l 1
 416.666992188 365.4765625 l 1
 416.666992188 85.7138671875 l 1
 386.904296875 85.7138671875 l 2
 362.103515625 85.7138671875 357.142578125 79.76171875 357.142578125 50 c 2
 357.142578125 14.2861328125 l 1
 238.095703125 14.2861328125 l 1
 119.047851562 14.2861328125 l 1
 119.047851562 50 l 2
 119.047851562 79.76171875 114.086914062 85.7138671875 89.2861328125 85.7138671875 c 2
 59.5234375 85.7138671875 l 1
 59.5234375 365.4765625 l 1
EndSplineSet
Validated: 1
EndChar

StartChar: V
Encoding: 86 86 73
Width: 500
Flags: HW
LayerCount: 2
Fore
SplineSet
59.5234375 401.786132812 m 2
 59.5234375 645.23828125 l 1
 119.047851562 645.23828125 l 1
 178.571289062 645.23828125 l 1
 178.571289062 401.190429688 l 1
 178.571289062 157.142578125 l 1
 238.095703125 157.142578125 l 1
 297.619140625 157.142578125 l 1
 297.619140625 401.190429688 l 1
 297.619140625 645.23828125 l 1
 357.142578125 645.23828125 l 1
 416.666992188 645.23828125 l 1
 416.666992188 401.190429688 l 1
 416.666992188 157.142578125 l 1
 386.904296875 157.142578125 l 2
 362.103515625 157.142578125 357.142578125 151.190429688 357.142578125 121.428710938 c 0
 357.142578125 91.6669921875 352.182617188 85.7138671875 327.380859375 85.7138671875 c 0
 302.579101562 85.7138671875 297.619140625 79.76171875 297.619140625 50 c 0
 297.619140625 15.3681640625 295.833007812 14.2861328125 238.690429688 14.2861328125 c 0
 182.73828125 14.2861328125 179.581054688 15.939453125 176.190429688 47.0234375 c 0
 173.72265625 69.642578125 164.5234375 80.8662109375 146.428710938 83.3330078125 c 0
 127.998046875 85.8466796875 119.1796875 96.4287109375 116.666992188 119.047851562 c 0
 114.153320312 141.666992188 105.159179688 152.249023438 86.3095703125 154.76171875 c 0
 59.5888671875 158.32421875 59.5234375 158.928710938 59.5234375 401.786132812 c 2
EndSplineSet
Validated: 1
EndChar

StartChar: W
Encoding: 87 87 74
Width: 500
Flags: HW
LayerCount: 2
Fore
SplineSet
41.6669921875 433.928710938 m 2
 41.6669921875 645.23828125 l 1
 98.2138671875 645.23828125 l 1
 154.76171875 645.23828125 l 1
 154.76171875 438.095703125 l 1
 154.76171875 230.952148438 l 1
 183.928710938 225.595703125 l 2
 212.755859375 220.30078125 213.13671875 221.428710938 216.666992188 322.619140625 c 0
 220.030273438 419.047851562 221.794921875 425.208007812 247.0234375 428.571289062 c 0
 273.061523438 432.04296875 273.809570312 429.166992188 273.809570312 325.595703125 c 0
 273.809570312 219.642578125 273.975585938 219.057617188 303.571289062 220.833007812 c 2
 333.333007812 222.619140625 l 1
 333.333007812 433.928710938 l 1
 333.333007812 645.23828125 l 1
 392.857421875 645.23828125 l 1
 452.380859375 645.23828125 l 1
 452.380859375 432.73828125 l 1
 452.380859375 220.23828125 l 1
 425.595703125 221.428710938 l 2
 400.1875 222.557617188 398.625976562 217.26171875 395.23828125 118.452148438 c 2
 391.666992188 14.2861328125 l 1
 333.333007812 14.2861328125 l 1
 275 14.2861328125 l 1
 271.428710938 118.452148438 l 2
 268.163085938 213.690429688 265.81640625 222.619140625 244.047851562 222.619140625 c 0
 222.279296875 222.619140625 219.931640625 213.690429688 216.666992188 118.452148438 c 2
 213.095703125 14.2861328125 l 1
 154.166992188 14.2861328125 l 1
 95.23828125 14.2861328125 l 1
 96.7802734375 108.333007812 l 2
 98.4580078125 210.713867188 92.421875 231.078125 61.904296875 225.9921875 c 0
 43.662109375 222.951171875 41.6669921875 243.452148438 41.6669921875 433.928710938 c 2
EndSplineSet
Validated: 33
EndChar

StartChar: X
Encoding: 88 88 75
Width: 500
Flags: HW
LayerCount: 2
Fore
SplineSet
50 576.786132812 m 2
 46.4287109375 645.23828125 l 1
 106.547851562 645.23828125 l 1
 166.666992188 645.23828125 l 1
 166.666992188 573.809570312 l 2
 166.666992188 505.952148438 168.125 502.380859375 195.833007812 502.380859375 c 0
 219.166992188 502.380859375 225.713867188 495.833007812 228.571289062 469.642578125 c 0
 231.168945312 445.833007812 239.448242188 435.930664062 258.928710938 433.333007812 c 0
 284.974609375 429.860351562 285.713867188 432.73828125 285.713867188 537.5 c 2
 285.713867188 645.23828125 l 1
 345.23828125 645.23828125 l 1
 404.76171875 645.23828125 l 1
 404.76171875 573.809570312 l 2
 404.76171875 505.952148438 403.2734375 502.380859375 375 502.380859375 c 0
 350.198242188 502.380859375 345.23828125 496.428710938 345.23828125 466.666992188 c 0
 345.23828125 436.904296875 340.27734375 430.952148438 315.4765625 430.952148438 c 0
 287.337890625 430.952148438 285.713867188 427.380859375 285.713867188 365.4765625 c 0
 285.713867188 300 292.21484375 291.516601562 336.904296875 298.666992188 c 0
 341.626953125 299.421875 345.23828125 284.5234375 345.23828125 264.286132812 c 0
 345.23828125 244.047851562 350.396484375 228.055664062 357.142578125 227.380859375 c 0
 363.809570312 226.713867188 375.595703125 225.404296875 383.928710938 224.404296875 c 0
 394.302734375 223.16015625 399.891601562 191.071289062 402.380859375 118.452148438 c 2
 405.952148438 14.2861328125 l 1
 345.833007812 14.2861328125 l 1
 285.713867188 14.2861328125 l 1
 285.713867188 121.428710938 l 2
 285.713867188 227.380859375 285.390625 228.571289062 256.547851562 228.571289062 c 0
 233.213867188 228.571289062 226.666992188 235.119140625 223.809570312 261.309570312 c 0
 221.211914062 285.119140625 213.744140625 294.047851562 196.428710938 294.047851562 c 0
 174.138671875 294.047851562 172.390625 285.119140625 169.047851562 154.166992188 c 2
 165.4765625 14.2861328125 l 1
 105.952148438 14.2861328125 l 1
 46.4287109375 14.2861328125 l 1
 50 118.452148438 l 2
 53.3876953125 217.26171875 54.94921875 222.557617188 80.357421875 221.428710938 c 0
 102.182617188 220.458984375 107.142578125 226.190429688 107.142578125 252.380859375 c 0
 107.142578125 284.5234375 133.98828125 307.165039062 155.952148438 293.547851562 c 0
 161.845703125 289.89453125 166.666992188 319.047851562 166.666992188 358.333007812 c 0
 166.666992188 423.809570312 164.434570312 430.059570312 139.880859375 433.333007812 c 0
 121.032226562 435.846679688 112.037109375 446.428710938 109.5234375 469.047851562 c 0
 107.010742188 491.666992188 98.1923828125 502.249023438 79.76171875 504.76171875 c 0
 56.9873046875 507.8671875 53.10546875 517.26171875 50 576.786132812 c 2
EndSplineSet
Validated: 33
EndChar

StartChar: Y
Encoding: 89 89 76
Width: 500
Flags: HW
LayerCount: 2
Fore
SplineSet
59.5234375 502.380859375 m 1
 59.5234375 645.23828125 l 1
 119.047851562 645.23828125 l 1
 178.571289062 645.23828125 l 1
 178.571289062 501.786132812 l 1
 178.571289062 358.333007812 l 1
 235.119140625 361.904296875 l 1
 291.666992188 365.4765625 l 1
 295.23828125 505.357421875 l 1
 298.809570312 645.23828125 l 1
 358.333007812 645.23828125 l 1
 417.857421875 645.23828125 l 1
 414.286132812 505.357421875 l 2
 410.881835938 372.0234375 409.48828125 365.30859375 384.5234375 361.904296875 c 0
 366.09375 359.391601562 357.275390625 348.809570312 354.76171875 326.190429688 c 0
 351.984375 301.190429688 345.23828125 294.3125 324.404296875 295.23828125 c 0
 297.958007812 296.413085938 297.619140625 294.642578125 297.619140625 155.357421875 c 2
 297.619140625 14.2861328125 l 1
 238.095703125 14.2861328125 l 1
 178.571289062 14.2861328125 l 1
 178.571289062 150 l 2
 178.571289062 263.095703125 175.396484375 286.904296875 159.5234375 292.857421875 c 0
 148.809570312 296.875 135.7890625 297.135742188 129.76171875 293.452148438 c 0
 123.790039062 289.802734375 119.047851562 302.9765625 119.047851562 323.213867188 c 0
 119.047851562 354.166992188 114.65625 359.5234375 89.2861328125 359.5234375 c 2
 59.5234375 359.5234375 l 1
 59.5234375 502.380859375 l 1
EndSplineSet
Validated: 33
EndChar

StartChar: Z
Encoding: 90 90 77
Width: 500
Flags: HW
LayerCount: 2
Fore
SplineSet
59.5234375 609.5234375 m 1
 59.5234375 645.23828125 l 1
 238.690429688 645.23828125 l 1
 417.857421875 645.23828125 l 1
 414.286132812 541.071289062 l 2
 410.979492188 444.642578125 408.768554688 436.639648438 384.5234375 433.333007812 c 0
 366.09375 430.8203125 357.275390625 420.23828125 354.76171875 397.619140625 c 0
 352.249023438 375 343.430664062 364.41796875 325 361.904296875 c 0
 306.569335938 359.391601562 297.750976562 348.809570312 295.23828125 326.190429688 c 0
 293.25390625 308.333007812 285.052734375 293.518554688 276.786132812 292.857421875 c 0
 268.452148438 292.190429688 256.666992188 290.880859375 250 289.880859375 c 0
 243.68359375 288.93359375 238.095703125 274.404296875 238.095703125 258.928710938 c 0
 238.095703125 237.5 230.989257812 228.814453125 211.309570312 226.190429688 c 0
 187.813476562 223.057617188 184.084960938 214.286132812 180.952148438 154.76171875 c 2
 177.380859375 86.904296875 l 1
 294.047851562 83.3330078125 l 1
 410.713867188 79.76171875 l 1
 414.286132812 47.0234375 l 1
 417.857421875 14.2861328125 l 1
 238.690429688 14.2861328125 l 1
 59.5234375 14.2861328125 l 1
 59.5234375 121.428710938 l 2
 59.5234375 180.952148438 63.7568359375 227.89453125 69.0478515625 227.047851562 c 0
 105.952148438 221.142578125 119.047851562 230.895507812 119.047851562 264.286132812 c 0
 119.047851562 284.5234375 123.174804688 299.33984375 128.571289062 298.4765625 c 0
 163.095703125 292.952148438 178.571289062 302.267578125 178.571289062 328.571289062 c 0
 178.571289062 350 186.071289062 359.333007812 205.357421875 361.904296875 c 0
 224.206054688 364.41796875 233.201171875 375 235.713867188 397.619140625 c 0
 238.227539062 420.23828125 247.045898438 430.8203125 265.4765625 433.333007812 c 0
 288.250976562 436.438476562 292.1328125 445.833007812 295.23828125 505.357421875 c 2
 298.809570312 573.809570312 l 1
 179.166992188 573.809570312 l 1
 59.5234375 573.809570312 l 1
 59.5234375 609.5234375 l 1
EndSplineSet
Validated: 33
EndChar

StartChar: A
Encoding: 65 65 78
Width: 500
Flags: HW
LayerCount: 2
Fore
SplineSet
166.666992188 609.5234375 m 0
 166.666992188 644.5234375 167.857421875 645.23828125 226.190429688 645.23828125 c 0
 284.5234375 645.23828125 285.713867188 644.5234375 285.713867188 609.5234375 c 0
 285.713867188 579.76171875 290.674804688 573.809570312 315.4765625 573.809570312 c 0
 340.27734375 573.809570312 345.23828125 567.857421875 345.23828125 538.095703125 c 0
 345.23828125 508.333007812 350.198242188 502.380859375 375 502.380859375 c 2
 404.76171875 502.380859375 l 1
 404.76171875 258.333007812 l 1
 404.76171875 14.2861328125 l 1
 345.833007812 14.2861328125 l 1
 286.904296875 14.2861328125 l 1
 283.333007812 118.452148438 l 1
 279.76171875 222.619140625 l 1
 223.213867188 226.190429688 l 1
 166.666992188 229.76171875 l 1
 166.666992188 122.0234375 l 1
 166.666992188 14.2861328125 l 1
 107.142578125 14.2861328125 l 1
 47.619140625 14.2861328125 l 1
 47.619140625 258.333007812 l 1
 47.619140625 502.380859375 l 1
 77.380859375 502.380859375 l 2
 102.182617188 502.380859375 107.142578125 508.333007812 107.142578125 538.095703125 c 0
 107.142578125 567.857421875 112.103515625 573.809570312 136.904296875 573.809570312 c 0
 161.706054688 573.809570312 166.666992188 579.76171875 166.666992188 609.5234375 c 0
283.333007812 398.213867188 m 1
 286.904296875 502.380859375 l 1
 226.786132812 502.380859375 l 1
 166.666992188 502.380859375 l 1
 166.666992188 394.642578125 l 1
 166.666992188 286.904296875 l 1
 223.213867188 290.4765625 l 1
 279.76171875 294.047851562 l 1
 283.333007812 398.213867188 l 1
EndSplineSet
Validated: 1
EndChar

StartChar: B
Encoding: 66 66 79
Width: 500
Flags: HW
LayerCount: 2
Fore
SplineSet
59.5234375 329.76171875 m 1
 59.5234375 645.23828125 l 1
 208.333007812 645.23828125 l 1
 357.142578125 645.23828125 l 1
 357.142578125 609.5234375 l 2
 357.142578125 579.76171875 362.202148438 573.809570312 387.5 573.809570312 c 2
 417.857421875 573.809570312 l 1
 414.286132812 469.642578125 l 2
 410.938476562 372.0234375 409.068359375 365.2421875 384.5234375 361.75390625 c 0
 348.809570312 356.678710938 344.439453125 300 379.76171875 300 c 0
 410.670898438 300 419.034179688 269.047851562 415.145507812 169.047851562 c 0
 412.13671875 91.6669921875 409.94921875 85.7138671875 384.5234375 85.7138671875 c 0
 361.706054688 85.7138671875 357.142578125 79.76171875 357.142578125 50 c 2
 357.142578125 14.2861328125 l 1
 208.333007812 14.2861328125 l 1
 59.5234375 14.2861328125 l 1
 59.5234375 329.76171875 l 1
295.23828125 469.642578125 m 1
 298.809570312 573.809570312 l 1
 238.690429688 573.809570312 l 1
 178.571289062 573.809570312 l 1
 178.571289062 466.071289062 l 1
 178.571289062 358.333007812 l 1
 235.119140625 361.904296875 l 1
 291.666992188 365.4765625 l 1
 295.23828125 469.642578125 l 1
295.23828125 189.880859375 m 1
 291.666992188 294.047851562 l 1
 235.119140625 294.047851562 l 1
 178.571289062 294.047851562 l 1
 178.571289062 189.880859375 l 1
 178.571289062 85.7138671875 l 1
 238.690429688 85.7138671875 l 1
 298.809570312 85.7138671875 l 1
 295.23828125 189.880859375 l 1
EndSplineSet
Validated: 33
EndChar

StartChar: C
Encoding: 67 67 80
Width: 500
Flags: HW
LayerCount: 2
Fore
SplineSet
107.142578125 609.5234375 m 2
 107.142578125 645.23828125 l 1
 225.595703125 645.23828125 l 1
 344.047851562 645.23828125 l 1
 347.619140625 612.5 l 2
 350.216796875 588.690429688 358.49609375 578.788085938 377.9765625 576.190429688 c 0
 402.529296875 572.916992188 404.76171875 566.666992188 404.76171875 501.190429688 c 2
 404.76171875 429.76171875 l 1
 348.213867188 433.333007812 l 1
 291.666992188 436.904296875 l 1
 288.095703125 505.357421875 l 1
 284.5234375 573.809570312 l 1
 225.595703125 573.809570312 l 1
 166.666992188 573.809570312 l 1
 166.666992188 329.76171875 l 1
 166.666992188 85.7138671875 l 1
 225.595703125 85.7138671875 l 1
 284.5234375 85.7138671875 l 1
 288.095703125 154.166992188 l 1
 291.666992188 222.619140625 l 1
 345.23828125 222.619140625 l 1
 398.809570312 222.619140625 l 1
 402.380859375 155.357421875 l 2
 405.66796875 93.4521484375 403.771484375 87.763671875 378.571289062 83.9287109375 c 0
 358.658203125 80.8984375 350.216796875 70.8330078125 347.619140625 47.0234375 c 2
 344.047851562 14.2861328125 l 1
 225.595703125 14.2861328125 l 1
 107.142578125 14.2861328125 l 1
 107.142578125 50 l 2
 107.142578125 79.76171875 102.182617188 85.7138671875 77.380859375 85.7138671875 c 2
 47.619140625 85.7138671875 l 1
 47.619140625 329.76171875 l 1
 47.619140625 573.809570312 l 1
 77.380859375 573.809570312 l 2
 102.182617188 573.809570312 107.142578125 579.76171875 107.142578125 609.5234375 c 2
EndSplineSet
Validated: 33
EndChar

StartChar: D
Encoding: 68 68 81
Width: 500
Flags: HW
LayerCount: 2
Fore
SplineSet
59.5234375 329.76171875 m 1
 59.5234375 645.23828125 l 1
 178.571289062 645.23828125 l 1
 297.619140625 645.23828125 l 1
 297.619140625 609.5234375 l 2
 297.619140625 579.76171875 302.579101562 573.809570312 327.380859375 573.809570312 c 0
 352.182617188 573.809570312 357.142578125 567.857421875 357.142578125 538.095703125 c 0
 357.142578125 508.333007812 362.103515625 502.380859375 386.904296875 502.380859375 c 2
 416.666992188 502.380859375 l 1
 416.666992188 329.76171875 l 1
 416.666992188 157.142578125 l 1
 386.904296875 157.142578125 l 2
 362.103515625 157.142578125 357.142578125 151.190429688 357.142578125 121.428710938 c 0
 357.142578125 91.6669921875 352.182617188 85.7138671875 327.380859375 85.7138671875 c 0
 302.579101562 85.7138671875 297.619140625 79.76171875 297.619140625 50 c 2
 297.619140625 14.2861328125 l 1
 178.571289062 14.2861328125 l 1
 59.5234375 14.2861328125 l 1
 59.5234375 329.76171875 l 1
238.095703125 538.095703125 m 0
 238.095703125 567.857421875 233.134765625 573.809570312 208.333007812 573.809570312 c 2
 178.571289062 573.809570312 l 1
 178.571289062 329.76171875 l 1
 178.571289062 85.7138671875 l 1
 207.73828125 85.7138671875 l 2
 231.071289062 85.7138671875 237.619140625 92.26171875 240.4765625 118.452148438 c 0
 243.073242188 142.26171875 251.352539062 152.1640625 270.833007812 154.76171875 c 0
 297.155273438 158.271484375 297.619140625 161.309570312 297.619140625 330.357421875 c 2
 297.619140625 502.380859375 l 1
 267.857421875 502.380859375 l 2
 243.055664062 502.380859375 238.095703125 508.333007812 238.095703125 538.095703125 c 0
EndSplineSet
Validated: 1
EndChar

StartChar: E
Encoding: 69 69 82
Width: 500
Flags: HW
LayerCount: 2
Fore
SplineSet
59.5234375 329.76171875 m 1
 59.5234375 645.23828125 l 1
 238.095703125 645.23828125 l 1
 416.666992188 645.23828125 l 1
 416.666992188 609.5234375 l 1
 416.666992188 573.809570312 l 1
 297.619140625 573.809570312 l 1
 178.571289062 573.809570312 l 1
 178.571289062 466.666992188 l 1
 178.571289062 359.5234375 l 1
 268.452148438 359.5234375 l 1
 358.333007812 359.5234375 l 1
 354.889648438 327.380859375 l 2
 351.151367188 292.494140625 352.380859375 292.889648438 238.095703125 289.737304688 c 2
 178.571289062 288.095703125 l 1
 178.571289062 187.5 l 1
 178.571289062 86.904296875 l 1
 294.642578125 83.3330078125 l 1
 410.713867188 79.76171875 l 1
 414.286132812 47.0234375 l 1
 417.857421875 14.2861328125 l 1
 238.690429688 14.2861328125 l 1
 59.5234375 14.2861328125 l 1
 59.5234375 329.76171875 l 1
EndSplineSet
Validated: 1
EndChar

StartChar: F
Encoding: 70 70 83
Width: 500
Flags: HW
LayerCount: 2
Fore
SplineSet
59.5234375 330.357421875 m 1
 59.5234375 646.428710938 l 1
 235.119140625 642.857421875 l 1
 410.713867188 639.286132812 l 1
 410.713867188 609.5234375 l 2
 410.713867188 579.9140625 410.119140625 579.743164062 294.642578125 576.190429688 c 2
 178.571289062 572.619140625 l 1
 178.571289062 466.071289062 l 1
 178.571289062 359.5234375 l 1
 268.452148438 359.5234375 l 1
 358.333007812 359.5234375 l 1
 354.76171875 326.786132812 l 2
 351.21484375 294.2734375 350.595703125 294.047851562 264.880859375 294.047851562 c 2
 178.571289062 294.047851562 l 1
 178.571289062 154.166992188 l 1
 178.571289062 14.2861328125 l 1
 119.047851562 14.2861328125 l 1
 59.5234375 14.2861328125 l 1
 59.5234375 330.357421875 l 1
EndSplineSet
Validated: 1
EndChar

StartChar: G
Encoding: 71 71 84
Width: 500
Flags: HW
LayerCount: 2
Fore
SplineSet
107.142578125 609.5234375 m 2
 107.142578125 645.23828125 l 1
 225.595703125 645.23828125 l 1
 344.047851562 645.23828125 l 1
 347.619140625 612.5 l 2
 350.216796875 588.690429688 358.49609375 578.788085938 377.9765625 576.190429688 c 0
 402.529296875 572.916992188 404.76171875 566.666992188 404.76171875 501.190429688 c 2
 404.76171875 429.76171875 l 1
 348.213867188 433.333007812 l 1
 291.666992188 436.904296875 l 1
 288.095703125 505.357421875 l 1
 284.5234375 573.809570312 l 1
 225.595703125 573.809570312 l 1
 166.666992188 573.809570312 l 1
 166.666992188 329.76171875 l 1
 166.666992188 85.7138671875 l 1
 226.190429688 85.7138671875 l 1
 285.713867188 85.7138671875 l 1
 285.713867188 157.73828125 l 2
 285.713867188 225.595703125 284.165039062 229.555664062 258.928710938 226.190429688 c 0
 236.607421875 223.213867188 232.142578125 228.571289062 232.142578125 258.333007812 c 2
 232.142578125 294.047851562 l 1
 318.452148438 298.213867188 l 1
 404.76171875 302.380859375 l 1
 404.76171875 158.333007812 l 1
 404.76171875 14.2861328125 l 1
 255.952148438 14.2861328125 l 1
 107.142578125 14.2861328125 l 1
 107.142578125 50 l 2
 107.142578125 79.76171875 102.182617188 85.7138671875 77.380859375 85.7138671875 c 2
 47.619140625 85.7138671875 l 1
 47.619140625 329.76171875 l 1
 47.619140625 573.809570312 l 1
 77.380859375 573.809570312 l 2
 102.182617188 573.809570312 107.142578125 579.76171875 107.142578125 609.5234375 c 2
EndSplineSet
Validated: 33
EndChar

StartChar: H
Encoding: 72 72 85
Width: 500
Flags: HW
LayerCount: 2
Fore
SplineSet
59.5234375 329.76171875 m 1
 59.5234375 645.23828125 l 1
 118.452148438 645.23828125 l 1
 177.380859375 645.23828125 l 1
 180.952148438 505.357421875 l 1
 184.5234375 365.4765625 l 1
 241.071289062 361.904296875 l 1
 297.619140625 358.333007812 l 1
 297.619140625 501.786132812 l 1
 297.619140625 645.23828125 l 1
 357.142578125 645.23828125 l 1
 416.666992188 645.23828125 l 1
 416.666992188 329.76171875 l 1
 416.666992188 14.2861328125 l 1
 357.142578125 14.2861328125 l 1
 297.619140625 14.2861328125 l 1
 297.619140625 151.190429688 l 1
 297.619140625 288.095703125 l 1
 238.095703125 288.095703125 l 1
 178.571289062 288.095703125 l 1
 178.571289062 151.190429688 l 1
 178.571289062 14.2861328125 l 1
 119.047851562 14.2861328125 l 1
 59.5234375 14.2861328125 l 1
 59.5234375 329.76171875 l 1
EndSplineSet
Validated: 1
EndChar

StartChar: I
Encoding: 73 73 86
Width: 500
Flags: HW
LayerCount: 2
Fore
SplineSet
119.047851562 609.5234375 m 2
 119.047851562 645.23828125 l 1
 238.690429688 645.23828125 l 1
 358.333007812 645.23828125 l 1
 354.76171875 612.5 l 2
 352.1640625 588.690429688 343.885742188 578.788085938 324.404296875 576.190429688 c 0
 297.619140625 572.619140625 297.619140625 572.619140625 297.619140625 329.76171875 c 0
 297.619140625 86.904296875 297.619140625 86.904296875 324.404296875 83.3330078125 c 0
 343.885742188 80.736328125 352.1640625 70.8330078125 354.76171875 47.0234375 c 2
 358.333007812 14.2861328125 l 1
 238.690429688 14.2861328125 l 1
 119.047851562 14.2861328125 l 1
 119.047851562 50 l 2
 119.047851562 79.76171875 124.0078125 85.7138671875 148.809570312 85.7138671875 c 2
 178.571289062 85.7138671875 l 1
 178.571289062 329.76171875 l 1
 178.571289062 573.809570312 l 1
 148.809570312 573.809570312 l 2
 124.0078125 573.809570312 119.047851562 579.76171875 119.047851562 609.5234375 c 2
EndSplineSet
Validated: 1
EndChar

StartChar: J
Encoding: 74 74 87
Width: 500
Flags: HW
LayerCount: 2
Fore
SplineSet
297.619140625 366.071289062 m 1
 297.619140625 646.428710938 l 1
 354.166992188 642.857421875 l 1
 410.713867188 639.286132812 l 1
 414.286132812 362.5 l 1
 417.857421875 85.7138671875 l 1
 387.5 85.7138671875 l 2
 362.202148438 85.7138671875 357.142578125 79.76171875 357.142578125 50 c 2
 357.142578125 14.2861328125 l 1
 238.690429688 14.2861328125 l 1
 120.23828125 14.2861328125 l 1
 116.666992188 47.0234375 l 2
 114.069335938 70.8330078125 105.627929688 80.8984375 85.7138671875 83.9287109375 c 0
 60.513671875 87.763671875 58.6181640625 93.4521484375 61.904296875 155.357421875 c 2
 65.4765625 222.619140625 l 1
 119.047851562 222.619140625 l 1
 172.619140625 222.619140625 l 1
 176.190429688 154.166992188 l 1
 179.76171875 85.7138671875 l 1
 238.690429688 85.7138671875 l 1
 297.619140625 85.7138671875 l 1
 297.619140625 366.071289062 l 1
EndSplineSet
Validated: 33
EndChar

StartChar: K
Encoding: 75 75 88
Width: 500
Flags: HW
LayerCount: 2
Fore
SplineSet
52.9765625 630.357421875 m 0
 56.1904296875 639.286132812 79.76171875 645.23828125 111.904296875 645.23828125 c 2
 165.4765625 645.23828125 l 1
 169.047851562 505.357421875 l 2
 172.482421875 370.833007812 173.64453125 365.33984375 199.404296875 361.904296875 c 0
 224.640625 358.540039062 226.190429688 362.5 226.190429688 430.357421875 c 0
 226.190429688 499.404296875 227.419921875 502.380859375 255.952148438 502.380859375 c 0
 284.2265625 502.380859375 285.713867188 505.952148438 285.713867188 573.809570312 c 2
 285.713867188 645.23828125 l 1
 345.23828125 645.23828125 l 1
 404.76171875 645.23828125 l 1
 404.76171875 573.809570312 l 2
 404.76171875 505.952148438 403.2734375 502.380859375 375 502.380859375 c 0
 346.7265625 502.380859375 345.23828125 498.809570312 345.23828125 430.952148438 c 0
 345.23828125 363.095703125 343.75 359.5234375 315.4765625 359.5234375 c 0
 291.666992188 359.5234375 285.713867188 353.571289062 285.713867188 329.76171875 c 0
 285.713867188 305.952148438 291.666992188 300 315.4765625 300 c 0
 343.75 300 345.23828125 296.428710938 345.23828125 228.571289062 c 0
 345.23828125 160.713867188 346.7265625 157.142578125 375 157.142578125 c 0
 403.2734375 157.142578125 404.76171875 153.571289062 404.76171875 85.7138671875 c 2
 404.76171875 14.2861328125 l 1
 345.23828125 14.2861328125 l 1
 285.713867188 14.2861328125 l 1
 285.713867188 85.7138671875 l 2
 285.713867188 153.571289062 284.2265625 157.142578125 255.952148438 157.142578125 c 0
 227.419921875 157.142578125 226.190429688 160.119140625 226.190429688 229.166992188 c 0
 226.190429688 297.0234375 224.640625 300.983398438 199.404296875 297.619140625 c 0
 173.52734375 294.168945312 172.498046875 289.286132812 169.047851562 153.571289062 c 2
 165.4765625 13.095703125 l 1
 109.5234375 16.6669921875 l 1
 53.5712890625 20.23828125 l 1
 50.595703125 317.857421875 l 2
 48.9521484375 482.142578125 50.01953125 622.142578125 52.9765625 630.357421875 c 0
EndSplineSet
Validated: 33
EndChar

StartChar: L
Encoding: 76 76 89
Width: 500
Flags: HW
LayerCount: 2
Fore
SplineSet
59.5234375 329.76171875 m 1
 59.5234375 645.23828125 l 1
 119.047851562 645.23828125 l 1
 178.571289062 645.23828125 l 1
 178.571289062 365.4765625 l 1
 178.571289062 85.7138671875 l 1
 297.619140625 85.7138671875 l 1
 416.666992188 85.7138671875 l 1
 416.666992188 50 l 1
 416.666992188 14.2861328125 l 1
 238.095703125 14.2861328125 l 1
 59.5234375 14.2861328125 l 1
 59.5234375 329.76171875 l 1
EndSplineSet
Validated: 1
EndChar

StartChar: M
Encoding: 77 77 90
Width: 500
Flags: HW
LayerCount: 2
Fore
SplineSet
41.619140625 329.76171875 m 1
 41.619140625 645.23828125 l 1
 101.142578125 645.23828125 l 1
 160.666992188 645.23828125 l 1
 160.666992188 573.809570312 l 2
 160.666992188 505.952148438 162.154296875 502.380859375 190.428710938 502.380859375 c 0
 215.799804688 502.380859375 220.190429688 497.0234375 220.190429688 466.071289062 c 0
 220.190429688 435.119140625 224.142578125 430.2890625 246.9765625 433.333007812 c 0
 266.45703125 435.930664062 274.736328125 445.833007812 277.333007812 469.642578125 c 0
 280.190429688 495.833007812 286.73828125 502.380859375 310.071289062 502.380859375 c 0
 337.779296875 502.380859375 339.23828125 505.952148438 339.23828125 573.809570312 c 2
 339.23828125 645.23828125 l 1
 398.76171875 645.23828125 l 1
 458.286132812 645.23828125 l 5
 458.286132812 329.76171875 l 5
 457 0 l 1
 399 0 l 1
 338 0 l 1
 339.23828125 222.619140625 l 1
 339.23828125 430.952148438 l 1
 309.4765625 430.952148438 l 2
 280.068359375 430.952148438 279.713867188 429.76171875 279.713867188 330.952148438 c 0
 279.713867188 233.333007812 280.018452767 231.007953603 249.952148438 225.595703125 c 6
 220.190429688 220.23828125 l 1
 220.190429688 325.595703125 l 2
 220.190429688 430.357421875 220.022460938 430.952148438 190.428710938 430.952148438 c 2
 160.666992188 430.952148438 l 1
 160.666992188 222.619140625 l 1
 160 0 l 1
 102 0 l 1
 42 0 l 1
 41.619140625 329.76171875 l 1
EndSplineSet
Validated: 33
EndChar

StartChar: N
Encoding: 78 78 91
Width: 500
Flags: HW
LayerCount: 2
Fore
SplineSet
35.7138671875 329.76171875 m 1
 35.7138671875 645.23828125 l 1
 95.23828125 645.23828125 l 1
 154.76171875 645.23828125 l 1
 154.76171875 573.809570312 l 2
 154.76171875 505.952148438 156.25 502.380859375 184.5234375 502.380859375 c 0
 209.325195312 502.380859375 214.286132812 496.428710938 214.286132812 466.666992188 c 0
 214.286132812 436.904296875 219.24609375 430.952148438 244.047851562 430.952148438 c 0
 269.41796875 430.952148438 273.809570312 425.595703125 273.809570312 394.642578125 c 0
 273.809570312 363.690429688 277.76171875 358.860351562 300.595703125 361.904296875 c 0
 326.35546875 365.33984375 327.517578125 370.833007812 330.952148438 505.357421875 c 2
 334.5234375 645.23828125 l 1
 393.452148438 645.23828125 l 1
 452.380859375 645.23828125 l 1
 449.404296875 332.73828125 l 1
 446.428710938 20.23828125 l 1
 389.880859375 16.6669921875 l 1
 333.333007812 13.095703125 l 1
 333.333007812 114.880859375 l 2
 333.333007812 173.213867188 328.250976562 217.428710938 321.428710938 218.452148438 c 0
 314.76171875 219.452148438 302.9765625 220.76171875 294.642578125 221.428710938 c 0
 286.209960938 222.103515625 277.182617188 238.095703125 273.809570312 258.333007812 c 0
 269.444335938 284.5234375 260.713867188 295 241.071289062 297.619140625 c 0
 221.392578125 300.243164062 214.286132812 308.928710938 214.286132812 330.357421875 c 0
 214.286132812 353.690429688 208.333007812 359.5234375 184.5234375 359.5234375 c 2
 154.76171875 359.5234375 l 1
 154.76171875 186.904296875 l 1
 154.76171875 14.2861328125 l 1
 95.23828125 14.2861328125 l 1
 35.7138671875 14.2861328125 l 1
 35.7138671875 329.76171875 l 1
EndSplineSet
Validated: 33
EndChar

StartChar: O
Encoding: 79 79 92
Width: 500
Flags: HW
LayerCount: 2
Fore
SplineSet
111.904296875 629.166992188 m 0
 116.353515625 641.177734375 146.428710938 645.23828125 230.952148438 645.23828125 c 2
 344.047851562 645.23828125 l 1
 347.619140625 612.5 l 2
 350.216796875 588.690429688 358.49609375 578.788085938 377.9765625 576.190429688 c 0
 404.76171875 572.619140625 404.76171875 572.619140625 404.76171875 329.76171875 c 0
 404.76171875 86.904296875 404.76171875 86.904296875 377.9765625 83.3330078125 c 0
 358.84375 80.7822265625 350.169921875 70.23828125 347.619140625 46.4287109375 c 2
 344.047851562 13.095703125 l 1
 228.571289062 16.6669921875 l 2
 114.286132812 20.201171875 113.095703125 20.5390625 113.095703125 49.404296875 c 0
 113.095703125 70.404296875 104.76171875 80.5712890625 83.3330078125 85.7138671875 c 2
 53.5712890625 92.857421875 l 1
 53.5712890625 329.76171875 l 1
 53.5712890625 566.666992188 l 1
 83.3330078125 574.404296875 l 2
 100 578.73828125 111.5234375 588.952148438 109.5234375 597.619140625 c 0
 107.671875 605.643554688 108.818359375 620.833007812 111.904296875 629.166992188 c 0
285.713867188 329.76171875 m 1
 285.713867188 573.809570312 l 1
 226.190429688 573.809570312 l 1
 166.666992188 573.809570312 l 1
 166.666992188 329.76171875 l 1
 166.666992188 85.7138671875 l 1
 226.190429688 85.7138671875 l 1
 285.713867188 85.7138671875 l 1
 285.713867188 329.76171875 l 1
EndSplineSet
Validated: 33
EndChar

StartChar: P
Encoding: 80 80 93
Width: 500
Flags: HW
LayerCount: 2
Fore
SplineSet
59.5234375 329.76171875 m 1
 59.5234375 645.23828125 l 1
 208.333007812 645.23828125 l 1
 357.142578125 645.23828125 l 1
 357.142578125 609.5234375 l 2
 357.142578125 579.76171875 362.103515625 573.809570312 386.904296875 573.809570312 c 0
 416.3359375 573.809570312 416.666992188 572.619140625 416.666992188 466.666992188 c 0
 416.666992188 360.713867188 416.3359375 359.5234375 386.904296875 359.5234375 c 0
 363.095703125 359.5234375 357.142578125 353.690429688 357.142578125 330.357421875 c 0
 357.142578125 304.794921875 350.595703125 300.234375 304.166992188 293.452148438 c 0
 275.595703125 289.279296875 245.431640625 289.279296875 238.690429688 293.452148438 c 0
 231.815429688 297.708007812 215.4765625 297.9765625 202.380859375 294.047851562 c 0
 180.338867188 287.434570312 178.571289062 276.786132812 178.571289062 150.595703125 c 2
 178.571289062 14.2861328125 l 1
 119.047851562 14.2861328125 l 1
 59.5234375 14.2861328125 l 1
 59.5234375 329.76171875 l 1
297.619140625 466.071289062 m 1
 297.619140625 573.809570312 l 1
 237.5 573.809570312 l 1
 177.380859375 573.809570312 l 1
 180.952148438 469.642578125 l 1
 184.5234375 365.4765625 l 1
 241.071289062 361.904296875 l 1
 297.619140625 358.333007812 l 1
 297.619140625 466.071289062 l 1
EndSplineSet
Validated: 33
EndChar
